<?xml version="1.0" encoding="UTF-8"?>
<svg xmlns="http://www.w3.org/2000/svg" xmlns:xlink="http://www.w3.org/1999/xlink" width="40px" height="40px" viewBox="0 0 40 39" version="1.1">
<g id="surface1">
<path style=" stroke:none;fill-rule:nonzero;fill:rgb(0%,0%,35.686275%);fill-opacity:1;" d="M 7.082031 0 L 32.917969 0 C 36.832031 0 40 3.167969 40 7.082031 L 40 31.917969 C 40 35.832031 36.832031 39 32.917969 39 L 7.082031 39 C 3.167969 39 0 35.832031 0 31.917969 L 0 7.082031 C 0 3.167969 3.167969 0 7.082031 0 Z M 7.082031 0 "/>
<path style=" stroke:none;fill-rule:nonzero;fill:rgb(60.000002%,60.000002%,100%);fill-opacity:1;" d="M 16.066406 23.332031 L 9.867188 23.332031 L 8.601562 27.265625 C 8.566406 27.417969 8.433594 27.515625 8.285156 27.5 L 5.148438 27.5 C 4.964844 27.5 4.917969 27.398438 4.964844 27.199219 L 10.332031 11.816406 C 10.382812 11.648438 10.433594 11.5 10.5 11.300781 C 10.566406 10.949219 10.601562 10.582031 10.601562 10.214844 C 10.582031 10.132812 10.648438 10.050781 10.734375 10.035156 L 15.050781 10.035156 C 15.167969 10.035156 15.25 10.082031 15.265625 10.167969 L 21.351562 27.167969 C 21.398438 27.351562 21.351562 27.433594 21.183594 27.433594 L 17.699219 27.433594 C 17.582031 27.449219 17.464844 27.367188 17.433594 27.25 L 16.066406 23.25 Z M 10.832031 20.015625 L 15.066406 20.015625 C 14.964844 19.667969 14.832031 19.25 14.683594 18.816406 C 14.535156 18.367188 14.382812 17.882812 14.234375 17.382812 C 14.066406 16.867188 13.917969 16.367188 13.75 15.851562 C 13.582031 15.332031 13.433594 14.851562 13.300781 14.367188 C 13.167969 13.898438 13.050781 13.464844 12.933594 13.066406 L 12.898438 13.066406 C 12.75 13.785156 12.566406 14.5 12.332031 15.214844 C 12.082031 16.015625 11.832031 16.851562 11.566406 17.683594 C 11.351562 18.535156 11.082031 19.316406 10.832031 20.015625 Z M 10.832031 20.015625 "/>
<path style=" stroke:none;fill-rule:nonzero;fill:rgb(60.000002%,60.000002%,100%);fill-opacity:1;" d="M 31.167969 21.832031 L 25.882812 21.832031 C 25.949219 22.351562 26.117188 22.867188 26.398438 23.316406 C 26.699219 23.765625 27.117188 24.117188 27.617188 24.316406 C 28.285156 24.601562 29.015625 24.75 29.75 24.734375 C 30.332031 24.714844 30.917969 24.667969 31.484375 24.550781 C 32 24.484375 32.5 24.351562 32.964844 24.167969 C 33.050781 24.101562 33.101562 24.132812 33.101562 24.300781 L 33.101562 26.851562 C 33.101562 26.917969 33.082031 26.984375 33.066406 27.050781 C 33.035156 27.101562 33 27.132812 32.949219 27.167969 C 32.417969 27.398438 31.867188 27.566406 31.285156 27.667969 C 30.5 27.816406 29.714844 27.882812 28.917969 27.867188 C 27.648438 27.867188 26.582031 27.667969 25.714844 27.285156 C 24.898438 26.933594 24.183594 26.382812 23.617188 25.699219 C 23.082031 25.050781 22.699219 24.316406 22.464844 23.515625 C 22.234375 22.734375 22.117188 21.917969 22.117188 21.082031 C 22.117188 20.183594 22.25 19.300781 22.535156 18.433594 C 22.800781 17.601562 23.214844 16.832031 23.785156 16.148438 C 24.332031 15.484375 25.015625 14.949219 25.800781 14.566406 C 26.582031 14.183594 27.515625 14.050781 28.582031 14.050781 C 29.464844 14.035156 30.351562 14.199219 31.167969 14.566406 C 31.851562 14.867188 32.449219 15.316406 32.917969 15.898438 C 33.351562 16.464844 33.699219 17.101562 33.917969 17.800781 C 34.132812 18.464844 34.234375 19.148438 34.234375 19.832031 C 34.234375 20.234375 34.214844 20.582031 34.199219 20.898438 C 34.167969 21.214844 34.148438 21.449219 34.132812 21.601562 C 34.117188 21.714844 34.015625 21.816406 33.898438 21.816406 C 33.800781 21.816406 33.617188 21.832031 33.351562 21.851562 C 33.082031 21.882812 32.765625 21.898438 32.382812 21.898438 C 32 21.898438 31.601562 21.832031 31.167969 21.832031 Z M 25.882812 19.398438 L 29.398438 19.398438 C 29.832031 19.398438 30.148438 19.398438 30.351562 19.382812 C 30.484375 19.367188 30.617188 19.332031 30.734375 19.25 L 30.734375 19.082031 C 30.734375 18.867188 30.699219 18.667969 30.632812 18.464844 C 30.332031 17.535156 29.449219 16.898438 28.464844 16.933594 C 27.550781 16.882812 26.683594 17.367188 26.25 18.199219 C 26.050781 18.582031 25.933594 18.984375 25.882812 19.398438 Z M 25.882812 19.398438 "/>
</g>
</svg>
