<?xml version="1.0" encoding="UTF-8"?>
<svg xmlns="http://www.w3.org/2000/svg" xmlns:xlink="http://www.w3.org/1999/xlink" width="44px" height="40px" viewBox="0 0 43 40" version="1.1">
<g id="surface1">
<path style=" stroke:none;fill-rule:nonzero;fill:rgb(21.176471%,41.176471%,49.803922%);fill-opacity:1;" d="M 6.9375 0.046875 L 6.945312 0.0273438 L 39.582031 7.390625 L 42.96875 7.390625 L 42.96875 40.027344 L 6.101562 40.027344 C 4.820312 40.027344 3.785156 38.96875 3.785156 37.664062 L 3.785156 34.46875 Z M 6.9375 0.046875 "/>
<path style=" stroke:none;fill-rule:nonzero;fill:rgb(21.568628%,64.705884%,80.000001%);fill-opacity:1;" d="M 39.808594 32.753906 L 6.9375 32.753906 L 6.9375 0.046875 L 6.945312 0.0273438 L 37.492188 0.0273438 C 38.773438 0.0273438 39.808594 1.085938 39.808594 2.390625 Z M 39.808594 32.753906 "/>
<path style=" stroke:none;fill-rule:nonzero;fill:rgb(49.019608%,77.64706%,86.666667%);fill-opacity:1;" d="M 0 4.300781 L 0 37.027344 L 6.945312 32.753906 L 6.945312 0.0273438 Z M 0 4.300781 "/>
<path style=" stroke:none;fill-rule:nonzero;fill:rgb(100%,100%,100%);fill-opacity:1;" d="M 25.816406 21.957031 L 20.300781 21.957031 L 19.277344 26.058594 L 14.707031 26.058594 L 19.960938 7.289062 L 26.082031 7.289062 L 31.621094 26.058594 L 26.945312 26.058594 Z M 23.007812 10.375 L 21.140625 18.472656 L 24.925781 18.472656 Z M 23.007812 10.375 "/>
</g>
</svg>
