<?xml version="1.0" encoding="UTF-8"?>
<svg xmlns="http://www.w3.org/2000/svg" xmlns:xlink="http://www.w3.org/1999/xlink" width="40px" height="40px" viewBox="0 0 40 32" version="1.1">
<g id="surface1">
<path style=" stroke:none;fill-rule:nonzero;fill:rgb(100%,100%,100%);fill-opacity:1;" d="M 32.246094 23.539062 C 30.65625 25.152344 28.433594 26.066406 26.03125 26.070312 C 23.621094 26.074219 21.398438 25.167969 19.8125 23.558594 C 19.035156 22.773438 18.46875 21.871094 18.113281 20.90625 C 17.769531 19.960938 17.636719 18.953125 17.722656 17.949219 C 17.808594 16.972656 18.097656 16.023438 18.574219 15.164062 C 19.039062 14.324219 19.679688 13.566406 20.464844 12.925781 C 22.007812 11.671875 23.972656 10.992188 26.03125 10.988281 C 28.085938 10.984375 30.050781 11.660156 31.59375 12.910156 C 32.378906 13.546875 33.015625 14.304688 33.480469 15.140625 C 33.957031 16 34.25 16.949219 34.332031 17.925781 C 34.421875 18.929688 34.289062 19.9375 33.941406 20.886719 C 33.589844 21.847656 33.019531 22.75 32.246094 23.539062 Z M 32.246094 23.539062 "/>
<path style=" stroke:none;fill-rule:nonzero;fill:rgb(0%,32.549021%,52.156866%);fill-opacity:1;" d="M 20.898438 18.050781 C 20.96875 16.746094 21.613281 15.59375 22.578125 14.777344 C 23.527344 13.976562 24.808594 13.488281 26.203125 13.488281 C 27.597656 13.488281 28.875 13.976562 29.824219 14.777344 C 30.792969 15.597656 31.433594 16.746094 31.507812 18.050781 C 31.582031 19.394531 31.039062 20.644531 30.089844 21.566406 C 29.125 22.507812 27.746094 23.101562 26.203125 23.101562 C 24.660156 23.101562 23.277344 22.507812 22.3125 21.566406 C 21.363281 20.644531 20.824219 19.394531 20.898438 18.050781 Z M 20.898438 18.050781 "/>
<path style=" stroke:none;fill-rule:nonzero;fill:rgb(100%,43.921569%,12.941177%);fill-opacity:1;" d="M 12.445312 20.695312 C 12.453125 21.207031 12.617188 22.199219 12.863281 22.976562 C 13.378906 24.621094 14.253906 26.140625 15.472656 27.480469 C 16.722656 28.855469 18.257812 29.960938 20.035156 30.746094 C 21.90625 31.570312 23.925781 31.992188 26.027344 31.988281 C 28.128906 31.984375 30.152344 31.554688 32.019531 30.722656 C 33.796875 29.929688 35.332031 28.824219 36.582031 27.441406 C 37.796875 26.097656 38.667969 24.574219 39.183594 22.933594 C 39.441406 22.113281 39.609375 21.269531 39.675781 20.414062 C 39.738281 19.582031 39.710938 18.742188 39.59375 17.914062 C 39.363281 16.289062 38.800781 14.765625 37.933594 13.375 C 37.136719 12.101562 36.113281 10.980469 34.898438 10.039062 L 22.625 0.640625 C 22.613281 0.632812 22.601562 0.625 22.59375 0.617188 C 21.785156 0 20.433594 0 19.546875 0.621094 C 18.648438 1.246094 18.546875 2.277344 19.34375 2.929688 L 19.339844 2.933594 L 24.460938 7.085938 L 8.851562 7.101562 L 8.832031 7.101562 C 7.542969 7.101562 6.300781 7.949219 6.054688 9.011719 C 5.804688 10.101562 6.679688 11 8.023438 11.007812 L 8.019531 11.011719 L 15.933594 10.996094 L 1.8125 21.800781 C 1.796875 21.816406 1.777344 21.828125 1.761719 21.839844 C 0.429688 22.855469 0 24.546875 0.835938 25.621094 C 1.6875 26.707031 3.5 26.707031 4.84375 25.625 L 12.550781 19.335938 C 12.550781 19.335938 12.4375 20.1875 12.445312 20.695312 Z M 32.246094 23.539062 C 30.65625 25.152344 28.433594 26.066406 26.03125 26.070312 C 23.621094 26.074219 21.398438 25.167969 19.8125 23.558594 C 19.035156 22.773438 18.46875 21.871094 18.113281 20.90625 C 17.769531 19.960938 17.636719 18.953125 17.722656 17.949219 C 17.808594 16.972656 18.097656 16.023438 18.574219 15.164062 C 19.039062 14.324219 19.679688 13.566406 20.464844 12.925781 C 22.007812 11.671875 23.972656 10.992188 26.03125 10.988281 C 28.085938 10.984375 30.050781 11.660156 31.59375 12.910156 C 32.378906 13.546875 33.015625 14.304688 33.480469 15.140625 C 33.957031 16 34.25 16.949219 34.332031 17.925781 C 34.421875 18.929688 34.289062 19.9375 33.941406 20.886719 C 33.589844 21.847656 33.019531 22.75 32.246094 23.539062 Z M 32.246094 23.539062 "/>
</g>
</svg>
