<?xml version="1.0" encoding="UTF-8"?>
<svg xmlns="http://www.w3.org/2000/svg" xmlns:xlink="http://www.w3.org/1999/xlink" width="40px" height="40px" viewBox="0 0 40 44" version="1.1">
<g id="surface1">
<path style=" stroke:none;fill-rule:nonzero;fill:rgb(0%,34.901962%,61.176473%);fill-opacity:1;" d="M 39.472656 33 C 39.785156 32.46875 39.980469 31.871094 39.980469 31.332031 L 39.980469 12.667969 C 39.980469 12.128906 39.785156 11.53125 39.472656 11 L 20 22 Z M 39.472656 33 "/>
<path style=" stroke:none;fill-rule:nonzero;fill:rgb(0%,26.666668%,50.980395%);fill-opacity:1;" d="M 21.730469 43.597656 L 38.25 34.265625 C 38.726562 33.996094 39.15625 33.53125 39.472656 33 L 20 22 L 0.527344 33 C 0.84375 33.53125 1.273438 33.996094 1.75 34.265625 L 18.269531 43.597656 C 19.222656 44.132812 20.777344 44.132812 21.730469 43.597656 Z M 21.730469 43.597656 "/>
<path style=" stroke:none;fill-rule:nonzero;fill:rgb(39.607844%,60.392159%,82.352942%);fill-opacity:1;" d="M 39.472656 11 C 39.15625 10.46875 38.726562 10.003906 38.25 9.734375 L 21.730469 0.402344 C 20.777344 -0.132812 19.222656 -0.132812 18.269531 0.402344 L 1.75 9.734375 C 0.800781 10.273438 0.0195312 11.59375 0.0195312 12.667969 L 0.0195312 31.332031 C 0.0195312 31.871094 0.214844 32.46875 0.527344 33 Z M 39.472656 11 "/>
<path style=" stroke:none;fill-rule:nonzero;fill:rgb(100%,100%,100%);fill-opacity:1;" d="M 20 35.035156 C 12.65625 35.035156 6.679688 29.1875 6.679688 22 C 6.679688 14.8125 12.65625 8.964844 20 8.964844 C 24.738281 8.964844 29.160156 11.460938 31.535156 15.480469 L 25.769531 18.742188 C 24.582031 16.734375 22.371094 15.484375 20 15.484375 C 16.328125 15.484375 13.339844 18.40625 13.339844 22 C 13.339844 25.59375 16.328125 28.515625 20 28.515625 C 22.371094 28.515625 24.582031 27.265625 25.769531 25.257812 L 31.535156 28.519531 C 29.160156 32.539062 24.738281 35.035156 20 35.035156 Z M 20 35.035156 "/>
<path style=" stroke:none;fill-rule:nonzero;fill:rgb(100%,100%,100%);fill-opacity:1;" d="M 33.320312 21.277344 L 31.839844 21.277344 L 31.839844 19.828125 L 30.359375 19.828125 L 30.359375 21.277344 L 28.878906 21.277344 L 28.878906 22.722656 L 30.359375 22.722656 L 30.359375 24.171875 L 31.839844 24.171875 L 31.839844 22.722656 L 33.320312 22.722656 Z M 33.320312 21.277344 "/>
<path style=" stroke:none;fill-rule:nonzero;fill:rgb(100%,100%,100%);fill-opacity:1;" d="M 38.871094 21.277344 L 37.390625 21.277344 L 37.390625 19.828125 L 35.910156 19.828125 L 35.910156 21.277344 L 34.429688 21.277344 L 34.429688 22.722656 L 35.910156 22.722656 L 35.910156 24.171875 L 37.390625 24.171875 L 37.390625 22.722656 L 38.871094 22.722656 Z M 38.871094 21.277344 "/>
</g>
</svg>
