<?xml version="1.0" encoding="UTF-8"?>
<svg xmlns="http://www.w3.org/2000/svg" xmlns:xlink="http://www.w3.org/1999/xlink" width="40px" height="40px" viewBox="0 0 40 40" version="1.1">
<g id="surface1">
<path style=" stroke:none;fill-rule:nonzero;fill:rgb(87.450981%,39.607844%,4.705882%);fill-opacity:1;" d="M 26.5625 21.929688 C 25.703125 17.914062 21.460938 13.15625 16.769531 12.117188 C 11.890625 11.042969 8.628906 11.015625 4.796875 13.519531 C 3.671875 14.25 1.785156 15.507812 0.0195312 17.378906 L 0.0195312 23.609375 C 2.507812 18.371094 8.175781 13.984375 14.523438 15.566406 C 25.304688 18.253906 23.578125 25.636719 22.28125 28.632812 C 19.957031 34.023438 11.410156 36.347656 8.777344 31.199219 C 5.921875 25.605469 12.296875 24.6875 12.296875 24.6875 C 12.296875 24.6875 10.636719 26.253906 12.71875 28.320312 C 14.160156 29.761719 16.902344 28.453125 17.855469 25.925781 C 18.691406 23.71875 16.890625 20.660156 12.949219 20.328125 C 9.648438 20.046875 4.695312 22.480469 4.191406 27.378906 C 3.714844 32.015625 5.847656 33.9375 8.941406 35.988281 C 12.027344 38.035156 18.636719 38.804688 22.410156 35.207031 C 26.511719 31.304688 27.710938 27.296875 26.5625 21.929688 Z M 0.0195312 0.0390625 L 0.0195312 12.265625 C 1.902344 10.644531 3.472656 9.835938 3.539062 9.796875 C 10.414062 5.917969 16.472656 7.839844 20.035156 8.9375 C 25.667969 10.667969 30.089844 14.972656 32 19.398438 C 34.222656 24.550781 32.300781 34.398438 24.789062 39.371094 C 24.460938 39.589844 24.132812 39.773438 23.804688 39.960938 L 39.980469 39.960938 L 39.980469 0.0390625 Z M 0.0195312 33.410156 L 0.0195312 38.121094 C 0.269531 38.320312 0.515625 38.496094 0.757812 38.636719 C 0.535156 38.550781 0.285156 38.429688 0.0195312 38.289062 L 0.0195312 39.960938 L 7.050781 39.960938 C 6.53125 39.6875 6.054688 39.40625 5.636719 39.132812 C 3.574219 37.757812 1.371094 35.816406 0.0195312 33.410156 Z M 0.0195312 33.410156 "/>
</g>
</svg>
