<?xml version="1.0" encoding="UTF-8"?>
<svg xmlns="http://www.w3.org/2000/svg" xmlns:xlink="http://www.w3.org/1999/xlink" width="40px" height="40px" viewBox="0 0 40 39" version="1.1">
<g id="surface1">
<path style=" stroke:none;fill-rule:nonzero;fill:rgb(0%,11.764706%,21.176471%);fill-opacity:1;" d="M 7.082031 0.03125 L 32.917969 0.03125 C 36.832031 0.03125 40 3.191406 40 7.101562 L 40 31.898438 C 40 35.808594 36.832031 38.96875 32.917969 38.96875 L 7.082031 38.96875 C 3.167969 38.96875 0 35.808594 0 31.898438 L 0 7.101562 C 0 3.191406 3.167969 0.03125 7.082031 0.03125 Z M 7.082031 0.03125 "/>
<path style=" stroke:none;fill-rule:nonzero;fill:rgb(19.215687%,65.882355%,100%);fill-opacity:1;" d="M 14.039062 27.550781 L 4.523438 27.550781 C 4.351562 27.550781 4.289062 27.460938 4.289062 27.257812 L 4.289062 10.25 C 4.289062 10.078125 4.351562 10.015625 4.507812 10.015625 L 7.457031 10.015625 C 7.566406 10.015625 7.628906 10.078125 7.628906 10.203125 L 7.628906 24.171875 L 14.554688 24.171875 C 14.710938 24.171875 14.757812 24.25 14.726562 24.40625 L 14.289062 27.304688 C 14.273438 27.398438 14.242188 27.476562 14.195312 27.507812 C 14.148438 27.535156 14.085938 27.550781 14.039062 27.550781 Z M 14.039062 27.550781 "/>
<path style=" stroke:none;fill-rule:nonzero;fill:rgb(19.215687%,65.882355%,100%);fill-opacity:1;" d="M 16.410156 14.234375 L 19.046875 14.234375 C 19.203125 14.234375 19.296875 14.3125 19.359375 14.5 C 19.40625 14.609375 19.453125 14.75 19.46875 14.890625 C 19.5 15.0625 19.515625 15.230469 19.53125 15.402344 C 19.546875 15.589844 19.546875 15.792969 19.546875 15.996094 C 19.984375 15.433594 20.53125 14.9375 21.15625 14.5625 C 21.824219 14.15625 22.605469 13.941406 23.386719 13.96875 C 23.542969 13.96875 23.605469 14.046875 23.605469 14.203125 L 23.605469 17.445312 C 23.605469 17.585938 23.527344 17.632812 23.371094 17.632812 C 22.839844 17.601562 22.308594 17.632812 21.792969 17.738281 C 21.355469 17.832031 20.953125 17.988281 20.546875 18.191406 C 20.25 18.347656 19.96875 18.566406 19.734375 18.816406 L 19.734375 27.304688 C 19.734375 27.476562 19.671875 27.535156 19.53125 27.535156 L 16.628906 27.535156 C 16.457031 27.535156 16.394531 27.460938 16.394531 27.273438 L 16.394531 18.050781 C 16.394531 17.648438 16.394531 17.242188 16.378906 16.804688 C 16.378906 16.371094 16.363281 15.933594 16.347656 15.511719 C 16.332031 15.140625 16.300781 14.78125 16.253906 14.40625 C 16.253906 14.359375 16.253906 14.3125 16.285156 14.25 C 16.332031 14.234375 16.363281 14.21875 16.410156 14.234375 Z M 16.410156 14.234375 "/>
<path style=" stroke:none;fill-rule:nonzero;fill:rgb(19.215687%,65.882355%,100%);fill-opacity:1;" d="M 35.429688 11.773438 C 35.085938 11.617188 34.695312 11.539062 34.304688 11.492188 C 33.746094 11.433594 33.167969 11.402344 32.605469 11.402344 C 30.96875 11.402344 29.53125 11.742188 28.363281 12.429688 C 27.191406 13.113281 26.226562 14.125 25.601562 15.339844 C 24.945312 16.570312 24.632812 18.035156 24.632812 19.671875 C 24.617188 20.652344 24.742188 21.632812 25.007812 22.597656 C 25.242188 23.410156 25.585938 24.171875 26.070312 24.875 C 26.519531 25.527344 27.066406 26.074219 27.707031 26.523438 C 28.347656 26.976562 29.0625 27.320312 29.828125 27.519531 C 30.609375 27.738281 31.449219 27.847656 32.261719 27.847656 C 32.839844 27.847656 33.417969 27.816406 33.976562 27.738281 C 34.445312 27.691406 34.898438 27.566406 35.335938 27.414062 C 35.507812 27.335938 35.601562 27.164062 35.585938 26.960938 L 35.585938 24.484375 C 35.601562 24.40625 35.570312 24.296875 35.507812 24.234375 C 35.460938 24.203125 35.367188 24.15625 35.242188 24.25 C 34.867188 24.390625 34.476562 24.484375 34.070312 24.53125 C 33.589844 24.578125 33.105469 24.59375 32.621094 24.59375 C 32.183594 24.59375 31.730469 24.53125 31.324219 24.40625 C 30.875 24.296875 30.453125 24.109375 30.0625 23.875 C 29.640625 23.628906 29.296875 23.300781 29.015625 22.910156 C 28.707031 22.476562 28.457031 21.992188 28.285156 21.476562 C 28.097656 20.839844 28.003906 20.199219 28.019531 19.53125 C 28.003906 18.613281 28.191406 17.691406 28.566406 16.867188 C 28.90625 16.152344 29.453125 15.542969 30.125 15.125 C 30.859375 14.6875 31.699219 14.46875 32.558594 14.484375 C 33.074219 14.484375 33.605469 14.515625 34.117188 14.625 C 34.539062 14.6875 34.929688 14.828125 35.320312 15.03125 C 35.382812 15.0625 35.476562 15.0625 35.539062 15.03125 C 35.601562 14.96875 35.648438 14.875 35.632812 14.78125 L 35.632812 12.179688 C 35.632812 12.007812 35.570312 11.867188 35.429688 11.773438 Z M 35.429688 11.773438 "/>
</g>
</svg>
