<?xml version="1.0" encoding="UTF-8"?>
<svg xmlns="http://www.w3.org/2000/svg" xmlns:xlink="http://www.w3.org/1999/xlink" width="40px" height="40px" viewBox="0 0 40 36" version="1.1">
<g id="surface1">
<path style=" stroke:none;fill-rule:nonzero;fill:rgb(49.019608%,77.64706%,86.666667%);fill-opacity:1;" d="M 0.0859375 4.152344 C 2.21875 2.898438 4.347656 1.632812 6.488281 0.390625 C 6.496094 10.003906 6.480469 19.613281 6.496094 29.226562 C 5.527344 29.8125 4.539062 30.375 3.566406 30.957031 C 2.40625 31.636719 1.25 32.328125 0.0859375 33 C 0.078125 23.382812 0.0859375 13.769531 0.0859375 4.152344 Z M 0.0859375 4.152344 "/>
<path style=" stroke:none;fill-rule:nonzero;fill:rgb(21.568628%,64.705884%,80.000001%);fill-opacity:1;" d="M 6.488281 0.390625 C 15.824219 0.375 25.160156 0.386719 34.492188 0.382812 C 35.644531 0.316406 36.726562 1.277344 36.734375 2.410156 C 36.753906 3.902344 36.734375 5.394531 36.742188 6.886719 C 36.738281 14.332031 36.746094 21.773438 36.738281 29.21875 C 26.660156 29.230469 16.578125 29.214844 6.496094 29.226562 C 6.480469 19.613281 6.496094 10.003906 6.488281 0.390625 M 13.148438 6.832031 C 13.140625 12.164062 13.148438 17.496094 13.144531 22.828125 C 14.324219 22.828125 15.503906 22.828125 16.683594 22.828125 C 16.6875 19.296875 16.683594 15.765625 16.683594 12.234375 C 17.679688 15.753906 18.589844 19.300781 19.558594 22.828125 C 20.839844 22.832031 22.121094 22.824219 23.40625 22.832031 C 24.328125 19.453125 25.214844 16.066406 26.148438 12.6875 C 26.160156 16.066406 26.148438 19.449219 26.152344 22.828125 C 27.453125 22.832031 28.753906 22.828125 30.054688 22.828125 C 30.0625 17.5 30.046875 12.171875 30.0625 6.84375 C 28.390625 6.816406 26.71875 6.839844 25.046875 6.832031 C 23.910156 11.082031 22.757812 15.332031 21.605469 19.574219 C 20.492188 15.332031 19.421875 11.078125 18.320312 6.832031 C 16.597656 6.832031 14.871094 6.835938 13.148438 6.832031 Z M 13.148438 6.832031 "/>
<path style=" stroke:none;fill-rule:nonzero;fill:rgb(100%,100%,100%);fill-opacity:1;" d="M 13.148438 6.832031 C 14.871094 6.835938 16.597656 6.832031 18.320312 6.832031 C 19.421875 11.078125 20.492188 15.332031 21.605469 19.574219 C 22.757812 15.332031 23.910156 11.082031 25.046875 6.832031 C 26.71875 6.839844 28.390625 6.816406 30.0625 6.84375 C 30.046875 12.171875 30.0625 17.5 30.054688 22.828125 C 28.753906 22.828125 27.453125 22.832031 26.152344 22.828125 C 26.148438 19.449219 26.160156 16.066406 26.148438 12.6875 C 25.214844 16.066406 24.328125 19.453125 23.40625 22.832031 C 22.121094 22.824219 20.839844 22.832031 19.558594 22.828125 C 18.589844 19.300781 17.679688 15.753906 16.683594 12.234375 C 16.683594 15.765625 16.6875 19.296875 16.683594 22.828125 C 15.503906 22.828125 14.324219 22.828125 13.144531 22.828125 C 13.148438 17.496094 13.140625 12.164062 13.148438 6.832031 Z M 13.148438 6.832031 "/>
<path style=" stroke:none;fill-rule:nonzero;fill:rgb(21.176471%,41.176471%,49.803922%);fill-opacity:1;" d="M 36.742188 6.886719 C 37.707031 6.886719 38.667969 6.886719 39.636719 6.886719 C 39.628906 16.480469 39.648438 26.078125 39.625 35.671875 L 5.773438 35.671875 C 5.371094 35.617188 4.957031 35.554688 4.605469 35.34375 C 3.976562 34.984375 3.5625 34.292969 3.566406 33.582031 C 3.5625 32.707031 3.570312 31.832031 3.566406 30.957031 C 4.539062 30.375 5.527344 29.8125 6.496094 29.226562 C 16.578125 29.214844 26.660156 29.230469 36.738281 29.21875 C 36.746094 21.773438 36.738281 14.332031 36.742188 6.886719 Z M 36.742188 6.886719 "/>
</g>
</svg>
