<?xml version="1.0" encoding="UTF-8"?>
<svg xmlns="http://www.w3.org/2000/svg" xmlns:xlink="http://www.w3.org/1999/xlink" width="40px" height="40px" viewBox="0 0 40 40" version="1.1">
<g id="surface1">
<path style=" stroke:none;fill-rule:nonzero;fill:rgb(36.470589%,52.941179%,63.137257%);fill-opacity:1;" d="M 12.246094 28.527344 L 11.160156 28.527344 C 11.121094 26.699219 11.015625 24.984375 10.84375 23.371094 L 10.835938 23.371094 L 9.1875 28.527344 L 8.363281 28.527344 L 6.722656 23.371094 L 6.714844 23.371094 C 6.59375 24.917969 6.515625 26.636719 6.484375 28.527344 L 5.496094 28.527344 C 5.558594 26.226562 5.71875 24.070312 5.976562 22.058594 L 7.316406 22.058594 L 8.878906 26.8125 L 8.890625 26.8125 L 10.460938 22.058594 L 11.746094 22.058594 C 12.027344 24.417969 12.191406 26.574219 12.246094 28.527344 M 16.941406 23.753906 C 16.5 26.148438 15.917969 27.886719 15.195312 28.972656 C 14.632812 29.808594 14.015625 30.226562 13.347656 30.226562 C 13.167969 30.226562 12.945312 30.171875 12.683594 30.0625 L 12.683594 29.488281 C 12.8125 29.503906 12.960938 29.515625 13.136719 29.515625 C 13.449219 29.515625 13.699219 29.429688 13.894531 29.257812 C 14.121094 29.046875 14.238281 28.808594 14.238281 28.546875 C 14.238281 28.367188 14.148438 28 13.96875 27.445312 L 12.78125 23.753906 L 13.84375 23.753906 L 14.699219 26.515625 C 14.890625 27.140625 14.96875 27.578125 14.9375 27.828125 C 15.402344 26.582031 15.730469 25.226562 15.914062 23.753906 Z M 16.941406 23.753906 "/>
<path style=" stroke:none;fill-rule:nonzero;fill:rgb(97.254902%,59.607846%,11.372549%);fill-opacity:1;" d="M 31.355469 28.527344 L 28.277344 28.527344 L 28.277344 22.058594 L 29.3125 22.058594 L 29.3125 27.730469 L 31.355469 27.730469 Z M 27.472656 28.683594 L 26.285156 28.097656 C 26.390625 28.011719 26.492188 27.917969 26.582031 27.808594 C 27.085938 27.214844 27.339844 26.335938 27.339844 25.171875 C 27.339844 23.035156 26.5 21.960938 24.820312 21.960938 C 23.996094 21.960938 23.351562 22.234375 22.890625 22.777344 C 22.386719 23.371094 22.136719 24.246094 22.136719 25.402344 C 22.136719 26.542969 22.359375 27.375 22.804688 27.90625 C 23.214844 28.382812 23.832031 28.625 24.65625 28.625 C 24.964844 28.625 25.246094 28.585938 25.503906 28.511719 L 27.050781 29.414062 Z M 23.621094 27.234375 C 23.359375 26.8125 23.226562 26.136719 23.226562 25.203125 C 23.226562 23.574219 23.722656 22.757812 24.714844 22.757812 C 25.230469 22.757812 25.609375 22.953125 25.855469 23.34375 C 26.117188 23.765625 26.246094 24.433594 26.246094 25.355469 C 26.246094 26.996094 25.75 27.820312 24.761719 27.820312 C 24.242188 27.820312 23.863281 27.625 23.621094 27.234375 M 21.683594 26.734375 C 21.683594 27.285156 21.484375 27.734375 21.082031 28.085938 C 20.679688 28.4375 20.136719 28.613281 19.460938 28.613281 C 18.828125 28.613281 18.214844 28.410156 17.621094 28.007812 L 17.898438 27.453125 C 18.410156 27.710938 18.871094 27.835938 19.289062 27.835938 C 19.679688 27.835938 19.984375 27.75 20.203125 27.578125 C 20.425781 27.40625 20.554688 27.167969 20.554688 26.859375 C 20.554688 26.476562 20.289062 26.148438 19.796875 25.871094 C 19.34375 25.625 18.4375 25.101562 18.4375 25.101562 C 17.945312 24.746094 17.699219 24.359375 17.699219 23.726562 C 17.699219 23.203125 17.882812 22.777344 18.25 22.457031 C 18.617188 22.132812 19.089844 21.972656 19.671875 21.972656 C 20.273438 21.972656 20.820312 22.132812 21.3125 22.453125 L 21.0625 23.007812 C 20.640625 22.828125 20.226562 22.738281 19.816406 22.738281 C 19.484375 22.738281 19.230469 22.820312 19.050781 22.980469 C 18.871094 23.140625 18.761719 23.34375 18.761719 23.59375 C 18.761719 23.976562 19.035156 24.308594 19.539062 24.589844 C 20 24.839844 20.929688 25.367188 20.929688 25.367188 C 21.433594 25.726562 21.683594 26.105469 21.683594 26.734375 "/>
<path style=" stroke:none;fill-rule:nonzero;fill:rgb(36.470589%,52.941179%,63.137257%);fill-opacity:1;" d="M 32.65625 19.890625 C 32.027344 19.875 31.542969 19.9375 31.136719 20.109375 C 31.019531 20.15625 30.832031 20.15625 30.816406 20.304688 C 30.878906 20.367188 30.886719 20.46875 30.941406 20.558594 C 31.035156 20.714844 31.199219 20.921875 31.347656 21.03125 C 31.511719 21.160156 31.679688 21.28125 31.851562 21.390625 C 32.152344 21.582031 32.5 21.691406 32.796875 21.878906 C 32.96875 21.988281 33.140625 22.128906 33.3125 22.246094 C 33.398438 22.308594 33.453125 22.410156 33.5625 22.449219 L 33.5625 22.425781 C 33.507812 22.355469 33.492188 22.253906 33.4375 22.175781 L 33.203125 21.949219 C 32.976562 21.644531 32.691406 21.375 32.390625 21.160156 C 32.140625 20.984375 31.589844 20.75 31.488281 20.464844 L 31.472656 20.449219 C 31.644531 20.429688 31.851562 20.367188 32.011719 20.320312 C 32.28125 20.25 32.523438 20.265625 32.796875 20.195312 C 32.921875 20.164062 33.046875 20.125 33.171875 20.085938 L 33.171875 20.015625 C 33.03125 19.875 32.929688 19.6875 32.78125 19.554688 C 32.382812 19.210938 31.941406 18.875 31.488281 18.59375 C 31.246094 18.4375 30.933594 18.335938 30.675781 18.203125 C 30.582031 18.15625 30.425781 18.132812 30.371094 18.054688 C 30.230469 17.882812 30.152344 17.65625 30.050781 17.453125 C 29.824219 17.023438 29.605469 16.546875 29.410156 16.09375 C 29.269531 15.789062 29.183594 15.484375 29.011719 15.203125 C 28.207031 13.871094 27.332031 13.066406 25.988281 12.277344 C 25.699219 12.113281 25.355469 12.042969 24.984375 11.957031 L 24.398438 11.925781 C 24.273438 11.871094 24.148438 11.722656 24.039062 11.652344 C 23.59375 11.371094 22.445312 10.761719 22.117188 11.566406 C 21.90625 12.074219 22.429688 12.574219 22.609375 12.832031 C 22.742188 13.011719 22.914062 13.214844 23.007812 13.417969 C 23.0625 13.550781 23.078125 13.691406 23.132812 13.832031 C 23.257812 14.175781 23.375 14.558594 23.539062 14.882812 C 23.625 15.042969 23.71875 15.21875 23.828125 15.363281 C 23.890625 15.453125 24 15.488281 24.023438 15.632812 C 23.914062 15.785156 23.90625 16.023438 23.84375 16.21875 C 23.5625 17.101562 23.671875 18.195312 24.070312 18.84375 C 24.195312 19.039062 24.496094 19.46875 24.890625 19.304688 C 25.246094 19.164062 25.167969 18.71875 25.269531 18.328125 C 25.289062 18.234375 25.277344 18.171875 25.324219 18.109375 L 25.324219 18.125 C 25.429688 18.34375 25.542969 18.554688 25.644531 18.773438 C 25.886719 19.15625 26.308594 19.554688 26.660156 19.820312 C 26.847656 19.960938 26.996094 20.203125 27.230469 20.289062 L 27.230469 20.265625 L 27.214844 20.265625 C 27.167969 20.195312 27.097656 20.164062 27.035156 20.109375 C 26.894531 19.96875 26.738281 19.796875 26.628906 19.640625 C 26.300781 19.203125 26.011719 18.71875 25.753906 18.21875 C 25.628906 17.976562 25.519531 17.710938 25.417969 17.46875 C 25.371094 17.375 25.371094 17.234375 25.292969 17.1875 C 25.171875 17.359375 25.003906 17.507812 24.917969 17.71875 C 24.769531 18.054688 24.753906 18.46875 24.695312 18.898438 L 24.667969 18.914062 C 24.417969 18.851562 24.332031 18.59375 24.234375 18.375 C 24 17.820312 23.960938 16.929688 24.164062 16.289062 C 24.21875 16.125 24.457031 15.609375 24.363281 15.453125 C 24.3125 15.300781 24.15625 15.21875 24.070312 15.097656 C 23.972656 14.949219 23.859375 14.761719 23.789062 14.597656 C 23.601562 14.160156 23.507812 13.675781 23.304688 13.238281 C 23.210938 13.035156 23.046875 12.824219 22.914062 12.636719 C 22.765625 12.425781 22.601562 12.277344 22.484375 12.027344 C 22.445312 11.941406 22.390625 11.800781 22.453125 11.707031 C 22.46875 11.644531 22.5 11.621094 22.5625 11.605469 C 22.664062 11.519531 22.953125 11.628906 23.054688 11.675781 C 23.34375 11.792969 23.585938 11.902344 23.828125 12.066406 C 23.9375 12.144531 24.054688 12.292969 24.195312 12.332031 L 24.363281 12.332031 C 24.609375 12.386719 24.890625 12.347656 25.128906 12.417969 C 25.542969 12.550781 25.917969 12.746094 26.253906 12.957031 C 27.277344 13.605469 28.121094 14.527344 28.691406 15.632812 C 28.785156 15.8125 28.824219 15.976562 28.910156 16.164062 C 29.074219 16.546875 29.277344 16.9375 29.441406 17.3125 C 29.605469 17.679688 29.761719 18.054688 29.996094 18.359375 C 30.113281 18.523438 30.585938 18.609375 30.796875 18.695312 C 30.949219 18.765625 31.195312 18.828125 31.335938 18.914062 C 31.601562 19.078125 31.867188 19.265625 32.117188 19.445312 C 32.238281 19.539062 32.632812 19.734375 32.65625 19.890625 M 24.679688 13.097656 C 24.574219 13.097656 24.464844 13.109375 24.359375 13.136719 L 24.359375 13.152344 L 24.375 13.152344 C 24.4375 13.277344 24.546875 13.363281 24.625 13.472656 C 24.6875 13.597656 24.742188 13.722656 24.804688 13.847656 L 24.820312 13.832031 C 24.929688 13.753906 24.984375 13.628906 24.984375 13.441406 C 24.9375 13.386719 24.929688 13.332031 24.890625 13.277344 C 24.84375 13.199219 24.742188 13.160156 24.679688 13.097656 "/>
<path style=" stroke:none;fill-rule:nonzero;fill:rgb(97.254902%,59.607846%,11.372549%);fill-opacity:1;" d="M 33.398438 28.527344 L 33.5625 28.527344 L 33.5625 27.734375 L 33.316406 27.734375 L 33.121094 28.277344 L 32.90625 27.734375 L 32.671875 27.734375 L 32.671875 28.527344 L 32.824219 28.527344 L 32.824219 27.925781 L 32.832031 27.925781 L 33.058594 28.527344 L 33.175781 28.527344 L 33.398438 27.925781 Z M 32.09375 28.527344 L 32.265625 28.527344 L 32.265625 27.871094 L 32.488281 27.871094 L 32.488281 27.734375 L 31.859375 27.734375 L 31.859375 27.871094 L 32.09375 27.871094 Z M 32.09375 28.527344 "/>
</g>
</svg>
