<?xml version="1.0" encoding="UTF-8"?>
<svg xmlns="http://www.w3.org/2000/svg" xmlns:xlink="http://www.w3.org/1999/xlink" width="40px" height="40px" viewBox="0 0 40 40" version="1.1">
<g id="surface1">
<path style=" stroke:none;fill-rule:nonzero;fill:rgb(12.941177%,12.941177%,12.941177%);fill-opacity:1;" d="M 20 4.167969 C 11.269531 4.167969 4.167969 11.269531 4.167969 20 C 4.167969 28.730469 11.269531 35.832031 20 35.832031 C 28.730469 35.832031 35.832031 28.730469 35.832031 20 C 35.832031 11.269531 28.730469 4.167969 20 4.167969 Z M 20 4.167969 "/>
<path style=" stroke:none;fill-rule:nonzero;fill:rgb(97.647059%,71.372551%,12.941177%);fill-opacity:1;" d="M 20 3.332031 C 10.808594 3.332031 3.332031 10.808594 3.332031 20 C 3.332031 29.191406 10.808594 36.667969 20 36.667969 C 29.191406 36.667969 36.667969 29.191406 36.667969 20 C 36.667969 10.808594 29.191406 3.332031 20 3.332031 Z M 20 35 C 11.730469 35 5 28.269531 5 20 C 5 11.730469 11.730469 5 20 5 C 28.269531 5 35 11.730469 35 20 C 35 28.269531 28.269531 35 20 35 Z M 20 35 "/>
<path style=" stroke:none;fill-rule:nonzero;fill:rgb(97.647059%,71.372551%,12.941177%);fill-opacity:1;" d="M 32.679688 15.917969 C 31.398438 11.925781 28.289062 8.753906 24.332031 7.394531 C 24.078125 7.304688 23.808594 7.492188 23.792969 7.761719 C 23.734375 8.765625 23.613281 10.933594 23.558594 11.953125 C 23.542969 12.261719 23.285156 12.5 22.976562 12.5 L 20.484375 12.5 C 20.042969 12.5 19.621094 12.324219 19.308594 12.011719 L 15.363281 8.066406 C 15.117188 7.824219 14.746094 7.746094 14.433594 7.890625 C 11.183594 9.386719 8.648438 12.152344 7.445312 15.550781 C 7.25 16.09375 7.660156 16.667969 8.234375 16.667969 L 16.835938 16.667969 C 17.535156 16.667969 18.199219 16.960938 18.675781 17.472656 L 22.28125 21.394531 C 22.421875 21.546875 22.5 21.75 22.5 21.957031 L 22.5 32.035156 C 22.5 32.589844 23.03125 32.992188 23.566406 32.84375 C 27.148438 31.851562 30.117188 29.398438 31.808594 26.167969 C 31.96875 25.859375 31.90625 25.480469 31.671875 25.222656 L 27.945312 21.203125 C 27.660156 20.894531 27.5 20.492188 27.5 20.070312 L 27.5 17.5 C 27.5 17.039062 27.875 16.667969 28.332031 16.667969 L 32.117188 16.667969 C 32.507812 16.667969 32.796875 16.289062 32.679688 15.917969 Z M 25.390625 18.847656 C 24.609375 19.523438 23.054688 19.089844 21.914062 17.886719 C 20.777344 16.683594 20.492188 15.160156 21.273438 14.484375 C 22.058594 13.8125 23.613281 14.242188 24.75 15.445312 C 25.886719 16.652344 26.175781 18.175781 25.390625 18.847656 Z M 25.390625 18.847656 "/>
</g>
</svg>
