<?xml version="1.0" encoding="UTF-8"?>
<svg xmlns="http://www.w3.org/2000/svg" xmlns:xlink="http://www.w3.org/1999/xlink" width="40px" height="40px" viewBox="0 0 40 46" version="1.1">
<g id="surface1">
<path style=" stroke:none;fill-rule:nonzero;fill:rgb(12.54902%,55.686277%,80.392158%);fill-opacity:1;" d="M 8.007812 8.414062 C 11.425781 9.570312 14.730469 10.710938 18.039062 11.855469 C 21.292969 12.980469 24.542969 14.109375 27.808594 15.238281 C 27.808594 25.269531 27.808594 35.273438 27.808594 45.523438 C 26.640625 45.183594 25.5625 44.914062 24.519531 44.558594 C 17.511719 42.164062 10.507812 39.746094 3.5 37.355469 C 0.5 36.328125 0.496094 36.34375 0.496094 33.289062 C 0.496094 24.714844 0.496094 16.136719 0.496094 7.5625 C 0.496094 7.054688 0.496094 6.546875 0.496094 5.84375 C 3.046875 6.726562 5.46875 7.5625 8.007812 8.414062 M 22.273438 31.917969 C 22.273438 28.8125 22.273438 25.710938 22.273438 22.605469 C 22.273438 19.324219 22.273438 19.320312 19.171875 18.265625 C 14.667969 16.730469 10.167969 15.195312 5.523438 13.617188 C 5.523438 19.753906 5.507812 25.722656 5.5625 31.691406 C 5.566406 32 6.117188 32.453125 6.5 32.585938 C 9.332031 33.566406 12.195312 34.457031 15.03125 35.417969 C 17.410156 36.222656 19.773438 37.085938 22.273438 37.96875 C 22.273438 35.894531 22.273438 34.042969 22.273438 31.917969 Z M 22.273438 31.917969 "/>
<path style=" stroke:none;fill-rule:nonzero;fill:rgb(20.784314%,76.47059%,94.509804%);fill-opacity:1;" d="M 28.246094 13.617188 C 22.777344 11.710938 17.410156 9.863281 11.996094 7.996094 C 11.996094 6.515625 11.996094 4.996094 11.996094 3.25 C 13.765625 3.800781 15.441406 4.273438 17.085938 4.835938 C 22.160156 6.566406 27.214844 8.375 32.308594 10.046875 C 33.4375 10.417969 33.753906 10.921875 33.746094 12.070312 C 33.695312 19.617188 33.71875 27.164062 33.71875 34.867188 C 32.351562 34.417969 31.058594 34.074219 29.847656 33.542969 C 29.523438 33.402344 29.28125 32.699219 29.277344 32.25 C 29.238281 26.507812 29.25 20.765625 29.253906 15.023438 C 29.253906 14.363281 29.34375 13.660156 28.246094 13.617188 Z M 28.246094 13.617188 "/>
<path style=" stroke:none;fill-rule:nonzero;fill:rgb(49.019608%,81.960785%,96.470588%);fill-opacity:1;" d="M 28.105469 7.019531 C 26.882812 6.640625 25.757812 6.308594 24.675781 5.875 C 24.375 5.757812 23.996094 5.363281 23.980469 5.078125 C 23.910156 3.707031 23.949219 2.328125 23.949219 0.828125 C 29.03125 2.550781 33.964844 4.210938 38.878906 5.933594 C 39.199219 6.046875 39.550781 6.644531 39.554688 7.019531 C 39.597656 12.808594 39.582031 18.59375 39.582031 24.472656 C 38.179688 23.976562 36.835938 23.503906 35.394531 22.996094 C 35.394531 18.9375 35.375 14.820312 35.410156 10.703125 C 35.417969 9.863281 35.230469 9.460938 34.3125 9.191406 C 32.246094 8.582031 30.246094 7.761719 28.105469 7.019531 Z M 28.105469 7.019531 "/>
<path style=" stroke:none;fill-rule:nonzero;fill:rgb(49.019608%,81.960785%,96.470588%);fill-opacity:1;" d="M 13.640625 18.414062 C 16 19.207031 18.246094 19.996094 20.554688 20.808594 C 20.554688 25.546875 20.554688 30.359375 20.554688 35.34375 C 16.121094 33.828125 11.722656 32.328125 7.25 30.804688 C 7.25 26.125 7.25 21.367188 7.25 16.277344 C 9.417969 17.011719 11.472656 17.707031 13.640625 18.414062 Z M 13.640625 18.414062 "/>
</g>
</svg>
