<?xml version="1.0" encoding="UTF-8"?>
<svg xmlns="http://www.w3.org/2000/svg" xmlns:xlink="http://www.w3.org/1999/xlink" width="40px" height="40px" viewBox="0 0 40 39" version="1.1">
<g id="surface1">
<path style=" stroke:none;fill-rule:nonzero;fill:rgb(0%,11.764706%,21.176471%);fill-opacity:1;" d="M 7.082031 0 L 32.917969 0 C 36.832031 0 40 3.167969 40 7.082031 L 40 31.917969 C 40 35.832031 36.832031 39 32.917969 39 L 7.082031 39 C 3.167969 39 0 35.832031 0 31.917969 L 0 7.082031 C 0 3.167969 3.167969 0 7.082031 0 Z M 7.082031 0 "/>
<path style=" stroke:none;fill-rule:nonzero;fill:rgb(19.215687%,65.882355%,100%);fill-opacity:1;" d="M 9 27.351562 L 9 10.199219 C 9 10.082031 9.050781 10.015625 9.167969 10.015625 C 9.449219 10.015625 9.714844 10.015625 10.101562 10 C 10.5 9.984375 10.917969 9.984375 11.367188 9.964844 C 11.816406 9.949219 12.300781 9.949219 12.816406 9.933594 C 13.332031 9.917969 13.832031 9.917969 14.332031 9.917969 C 15.699219 9.917969 16.832031 10.082031 17.765625 10.433594 C 18.601562 10.714844 19.367188 11.183594 20 11.800781 C 20.535156 12.332031 20.949219 12.984375 21.214844 13.699219 C 21.464844 14.398438 21.601562 15.117188 21.601562 15.867188 C 21.601562 17.300781 21.265625 18.484375 20.601562 19.417969 C 19.933594 20.351562 19 21.050781 17.917969 21.449219 C 16.785156 21.867188 15.535156 22.015625 14.167969 22.015625 C 13.765625 22.015625 13.5 22.015625 13.332031 22 C 13.167969 21.984375 12.933594 21.984375 12.617188 21.984375 L 12.617188 27.332031 C 12.632812 27.449219 12.550781 27.550781 12.433594 27.566406 C 12.417969 27.566406 12.398438 27.566406 12.367188 27.566406 L 9.199219 27.566406 C 9.066406 27.566406 9 27.5 9 27.351562 Z M 12.632812 13.234375 L 12.632812 18.832031 C 12.867188 18.851562 13.082031 18.867188 13.285156 18.867188 L 14.167969 18.867188 C 14.816406 18.867188 15.464844 18.765625 16.082031 18.566406 C 16.617188 18.417969 17.082031 18.101562 17.449219 17.683594 C 17.800781 17.265625 17.964844 16.699219 17.964844 15.964844 C 17.984375 15.449219 17.851562 14.933594 17.582031 14.484375 C 17.300781 14.050781 16.898438 13.714844 16.417969 13.535156 C 15.800781 13.285156 15.132812 13.183594 14.449219 13.199219 C 14.015625 13.199219 13.632812 13.199219 13.316406 13.214844 C 12.984375 13.199219 12.75 13.214844 12.632812 13.234375 Z M 12.632812 13.234375 "/>
<path style=" stroke:none;fill-rule:nonzero;fill:rgb(19.215687%,65.882355%,100%);fill-opacity:1;" d="M 32 17.816406 C 31.5 17.550781 30.964844 17.367188 30.398438 17.25 C 29.785156 17.117188 29.167969 17.035156 28.535156 17.035156 C 28.199219 17.015625 27.851562 17.066406 27.535156 17.148438 C 27.316406 17.199219 27.132812 17.316406 27.015625 17.484375 C 26.933594 17.617188 26.882812 17.785156 26.882812 17.933594 C 26.882812 18.082031 26.949219 18.234375 27.050781 18.367188 C 27.199219 18.550781 27.398438 18.699219 27.617188 18.816406 C 28 19.015625 28.398438 19.199219 28.800781 19.367188 C 29.699219 19.667969 30.566406 20.082031 31.367188 20.582031 C 31.917969 20.933594 32.367188 21.398438 32.683594 21.964844 C 32.949219 22.5 33.082031 23.082031 33.066406 23.683594 C 33.082031 24.464844 32.851562 25.25 32.417969 25.898438 C 31.949219 26.566406 31.300781 27.082031 30.550781 27.382812 C 29.734375 27.734375 28.734375 27.917969 27.535156 27.917969 C 26.765625 27.917969 26.015625 27.851562 25.265625 27.699219 C 24.683594 27.601562 24.101562 27.417969 23.566406 27.167969 C 23.449219 27.101562 23.367188 26.984375 23.382812 26.851562 L 23.382812 23.949219 C 23.382812 23.898438 23.398438 23.832031 23.449219 23.800781 C 23.5 23.765625 23.550781 23.785156 23.601562 23.816406 C 24.25 24.199219 24.933594 24.464844 25.667969 24.632812 C 26.300781 24.800781 26.964844 24.882812 27.632812 24.882812 C 28.265625 24.882812 28.714844 24.800781 29.015625 24.648438 C 29.285156 24.535156 29.464844 24.25 29.464844 23.949219 C 29.464844 23.714844 29.332031 23.5 29.066406 23.285156 C 28.800781 23.066406 28.25 22.816406 27.433594 22.5 C 26.582031 22.199219 25.800781 21.800781 25.066406 21.300781 C 24.550781 20.933594 24.117188 20.449219 23.800781 19.882812 C 23.535156 19.351562 23.398438 18.765625 23.417969 18.183594 C 23.417969 17.464844 23.617188 16.785156 23.984375 16.167969 C 24.398438 15.5 25.015625 14.964844 25.734375 14.632812 C 26.515625 14.234375 27.5 14.050781 28.683594 14.050781 C 29.367188 14.050781 30.066406 14.101562 30.75 14.199219 C 31.25 14.265625 31.734375 14.398438 32.183594 14.582031 C 32.25 14.601562 32.316406 14.667969 32.351562 14.734375 C 32.367188 14.800781 32.382812 14.867188 32.382812 14.933594 L 32.382812 17.648438 C 32.382812 17.714844 32.351562 17.785156 32.300781 17.816406 C 32.148438 17.851562 32.066406 17.851562 32 17.816406 Z M 32 17.816406 "/>
</g>
</svg>
