<?xml version="1.0" encoding="UTF-8"?>
<svg xmlns="http://www.w3.org/2000/svg" xmlns:xlink="http://www.w3.org/1999/xlink" width="40px" height="40px" viewBox="0 0 40 39" version="1.1">
<g id="surface1">
<path style=" stroke:none;fill-rule:nonzero;fill:rgb(0%,0%,35.686275%);fill-opacity:1;" d="M 7.082031 0 L 32.917969 0 C 36.832031 0 40 3.167969 40 7.082031 L 40 31.917969 C 40 35.832031 36.832031 39 32.917969 39 L 7.082031 39 C 3.167969 39 0 35.832031 0 31.917969 L 0 7.082031 C 0 3.167969 3.167969 0 7.082031 0 Z M 7.082031 0 "/>
<path style=" stroke:none;fill-rule:nonzero;fill:rgb(60.000002%,60.000002%,100%);fill-opacity:1;" d="M 9.5 27.332031 L 9.5 10.167969 C 9.5 10.050781 9.550781 9.984375 9.667969 9.984375 C 9.949219 9.984375 10.214844 9.984375 10.601562 9.964844 C 11 9.949219 11.417969 9.949219 11.867188 9.933594 C 12.316406 9.917969 12.800781 9.917969 13.316406 9.898438 C 13.832031 9.882812 14.332031 9.882812 14.832031 9.882812 C 16.199219 9.882812 17.332031 10.050781 18.265625 10.398438 C 19.101562 10.683594 19.867188 11.148438 20.5 11.765625 C 21.035156 12.300781 21.449219 12.949219 21.714844 13.667969 C 21.964844 14.367188 22.101562 15.082031 22.101562 15.832031 C 22.101562 17.265625 21.765625 18.449219 21.101562 19.382812 C 20.433594 20.316406 19.5 21.015625 18.417969 21.417969 C 17.285156 21.832031 16.035156 21.984375 14.667969 21.984375 C 14.265625 21.984375 14 21.984375 13.832031 21.964844 C 13.667969 21.949219 13.433594 21.949219 13.117188 21.949219 L 13.117188 27.300781 C 13.132812 27.417969 13.050781 27.515625 12.933594 27.535156 L 9.699219 27.535156 C 9.566406 27.535156 9.5 27.464844 9.5 27.316406 Z M 13.132812 13.214844 L 13.132812 18.816406 C 13.367188 18.832031 13.582031 18.851562 13.785156 18.851562 L 14.667969 18.851562 C 15.316406 18.851562 15.964844 18.75 16.582031 18.550781 C 17.117188 18.398438 17.582031 18.082031 17.949219 17.667969 C 18.300781 17.25 18.464844 16.683594 18.464844 15.949219 C 18.484375 15.433594 18.351562 14.917969 18.082031 14.464844 C 17.800781 14.035156 17.398438 13.699219 16.917969 13.515625 C 16.300781 13.265625 15.632812 13.167969 14.949219 13.183594 C 14.515625 13.183594 14.132812 13.183594 13.816406 13.199219 C 13.484375 13.183594 13.25 13.199219 13.132812 13.214844 Z M 13.132812 13.214844 "/>
<path style=" stroke:none;fill-rule:nonzero;fill:rgb(60.000002%,60.000002%,100%);fill-opacity:1;" d="M 24.5 14.199219 L 27.417969 14.199219 C 27.582031 14.199219 27.714844 14.316406 27.765625 14.464844 C 27.816406 14.601562 27.851562 14.734375 27.867188 14.882812 C 27.898438 15.050781 27.933594 15.234375 27.949219 15.398438 C 27.964844 15.582031 27.984375 15.785156 27.984375 16 C 28.484375 15.417969 29.082031 14.933594 29.765625 14.566406 C 30.535156 14.132812 31.417969 13.917969 32.300781 13.917969 C 32.417969 13.898438 32.515625 13.984375 32.535156 14.101562 L 32.535156 17.417969 C 32.535156 17.550781 32.449219 17.601562 32.265625 17.601562 C 31.667969 17.582031 31.050781 17.632812 30.464844 17.765625 C 29.984375 17.867188 29.515625 18.015625 29.066406 18.214844 C 28.75 18.367188 28.449219 18.566406 28.214844 18.832031 L 28.214844 27.332031 C 28.214844 27.5 28.148438 27.566406 28 27.566406 L 24.714844 27.566406 C 24.582031 27.582031 24.464844 27.5 24.449219 27.367188 L 24.449219 18.066406 C 24.449219 17.667969 24.449219 17.25 24.433594 16.816406 C 24.417969 16.382812 24.417969 15.949219 24.398438 15.515625 C 24.398438 15.132812 24.367188 14.765625 24.332031 14.382812 C 24.316406 14.300781 24.367188 14.214844 24.449219 14.199219 C 24.449219 14.183594 24.484375 14.183594 24.5 14.199219 Z M 24.5 14.199219 "/>
</g>
</svg>
