<?xml version="1.0" encoding="UTF-8"?>
<svg xmlns="http://www.w3.org/2000/svg" xmlns:xlink="http://www.w3.org/1999/xlink" width="40px" height="29px" viewBox="0 0 40 29" version="1.1">
<g id="surface1">
<path style=" stroke:none;fill-rule:nonzero;fill:rgb(17.254902%,87.058824%,52.156866%);fill-opacity:1;" d="M 4.285156 0 C 16.175781 0 28.0625 0 40 0 C 40 8.160156 40 16.320312 39.941406 24.582031 C 38.496094 26.125 37.105469 27.5625 35.714844 29 C 23.824219 29 11.9375 29 0 29 C 0 20.839844 0 12.679688 0.0585938 4.417969 C 1.503906 2.878906 2.894531 1.4375 4.285156 0 M 8.75 6.289062 C 8.75 11.234375 8.75 16.175781 8.75 21.148438 C 9.625 21.148438 10.40625 21.148438 11.289062 21.148438 C 11.289062 19.507812 11.289062 17.925781 11.289062 16.3125 C 12.460938 16.3125 13.53125 16.355469 14.597656 16.300781 C 15.929688 16.234375 17.226562 15.945312 18.207031 14.945312 C 19.589844 13.53125 19.808594 11.703125 19.609375 9.867188 C 19.351562 7.507812 18.140625 5.984375 16.109375 5.820312 C 13.78125 5.632812 11.4375 5.671875 9.097656 5.644531 C 8.984375 5.644531 8.867188 5.953125 8.75 6.289062 M 26.59375 26.085938 C 26.777344 25.632812 27.007812 25.195312 27.132812 24.726562 C 27.902344 21.847656 28.652344 18.964844 29.402344 16.082031 C 29.941406 14.003906 30.460938 11.917969 30.996094 9.820312 C 30.234375 9.820312 29.527344 9.820312 28.777344 9.820312 C 27.972656 12.953125 27.171875 16.066406 26.378906 19.136719 C 25.769531 19.367188 25.519531 19.113281 25.394531 18.585938 C 25.160156 17.578125 24.898438 16.578125 24.640625 15.574219 C 24.148438 13.644531 23.648438 11.714844 23.15625 9.808594 C 22.371094 9.808594 21.6875 9.808594 20.953125 9.808594 C 21.777344 13.039062 22.5625 16.246094 23.417969 19.433594 C 23.878906 21.148438 23.933594 21.132812 25.699219 21.222656 C 25.746094 21.226562 25.792969 21.277344 25.847656 21.308594 C 25.429688 22.875 25.007812 24.445312 24.566406 26.097656 C 25.308594 26.097656 25.871094 26.097656 26.59375 26.085938 Z M 26.59375 26.085938 "/>
<path style=" stroke:none;fill-rule:nonzero;fill:rgb(17.254902%,87.058824%,52.156866%);fill-opacity:1;" d="M 17.148438 10.429688 C 17.054688 11.304688 17.070312 12.136719 16.828125 12.882812 C 16.441406 14.054688 15.351562 14.234375 14.316406 14.304688 C 13.34375 14.371094 12.363281 14.316406 11.316406 14.316406 C 11.316406 12.097656 11.316406 9.917969 11.316406 7.628906 C 12.59375 7.628906 13.902344 7.503906 15.175781 7.660156 C 16.449219 7.820312 17.28125 8.804688 17.148438 10.429688 Z M 17.148438 10.429688 "/>
</g>
</svg>
