<?xml version="1.0" encoding="UTF-8"?>
<svg xmlns="http://www.w3.org/2000/svg" xmlns:xlink="http://www.w3.org/1999/xlink" width="40px" height="40px" viewBox="0 0 40 40" version="1.1">
<defs>
<linearGradient id="linear0" gradientUnits="userSpaceOnUse" x1="63.815899" y1="56.682899" x2="118.493401" y2="1.8225" gradientTransform="matrix(0.363636,0,0,-0.363636,-19.457237,24.185127)">
<stop offset="0" style="stop-color:rgb(21.960784%,49.411765%,72.156863%);stop-opacity:1;"/>
<stop offset="1" style="stop-color:rgb(21.176471%,41.176471%,58.039216%);stop-opacity:1;"/>
</linearGradient>
<linearGradient id="linear1" gradientUnits="userSpaceOnUse" x1="97.044403" y1="21.632099" x2="155.666504" y2="-34.5308" gradientTransform="matrix(0.363636,0,0,-0.363636,-19.457237,24.185127)">
<stop offset="0" style="stop-color:rgb(100%,87.843137%,32.156863%);stop-opacity:1;"/>
<stop offset="1" style="stop-color:rgb(100%,76.470588%,19.215686%);stop-opacity:1;"/>
</linearGradient>
</defs>
<g id="surface1">
<path style=" stroke:none;fill-rule:nonzero;fill:url(#linear0);" d="M 19.933594 0 C 10.488281 0 10.386719 3.664062 10.386719 4.421875 C 10.386719 5.566406 10.386719 9 10.386719 9 L 20.113281 9 L 20.113281 10.375 C 20.113281 10.375 9.984375 10.375 6.523438 10.375 C 3.632812 10.375 0 12.132812 0 19.921875 C 0 27.074219 2.832031 29.839844 5.691406 29.839844 C 6.542969 29.839844 9.089844 29.839844 9.089844 29.839844 C 9.089844 29.839844 9.089844 26.289062 9.089844 25.066406 C 9.089844 23.070312 10.082031 19.375 14.691406 19.375 C 20.480469 19.375 21.957031 19.375 24.339844 19.375 C 25.757812 19.375 29.761719 18.757812 29.761719 14.136719 C 29.761719 9.246094 29.761719 7.632812 29.761719 5.328125 C 29.761719 4.183594 29.566406 0 19.933594 0 Z M 14.570312 3.078125 C 15.535156 3.078125 16.320312 3.863281 16.320312 4.828125 C 16.320312 5.796875 15.535156 6.578125 14.570312 6.578125 C 13.601562 6.578125 12.816406 5.796875 12.816406 4.828125 C 12.816406 3.863281 13.601562 3.078125 14.570312 3.078125 Z M 14.570312 3.078125 "/>
<path style=" stroke:none;fill-rule:nonzero;fill:url(#linear1);" d="M 20.066406 40 C 29.507812 40 29.625 36.265625 29.625 35.578125 C 29.625 34.433594 29.625 31 29.625 31 L 19.886719 31 L 19.886719 29.625 C 19.886719 29.625 30.078125 29.625 33.476562 29.625 C 36.390625 29.625 40 27.824219 40 20.078125 C 40 11.597656 36.167969 10.160156 34.308594 10.160156 C 33.457031 10.160156 30.910156 10.160156 30.910156 10.160156 C 30.910156 10.160156 30.910156 13.875 30.910156 14.933594 C 30.910156 16.929688 29.953125 20.625 25.308594 20.625 C 19.519531 20.625 18.226562 20.625 15.660156 20.625 C 14.242188 20.625 10.238281 21.316406 10.238281 25.863281 C 10.238281 31.128906 10.238281 32.503906 10.238281 34.671875 C 10.238281 36.574219 11.402344 40 20.066406 40 Z M 25.433594 36.921875 C 24.464844 36.921875 23.683594 36.136719 23.683594 35.171875 C 23.683594 34.203125 24.464844 33.421875 25.433594 33.421875 C 26.398438 33.421875 27.183594 34.203125 27.183594 35.171875 C 27.183594 36.136719 26.398438 36.921875 25.433594 36.921875 Z M 25.433594 36.921875 "/>
</g>
</svg>
