<?xml version="1.0" encoding="UTF-8"?>
<svg xmlns="http://www.w3.org/2000/svg" xmlns:xlink="http://www.w3.org/1999/xlink" width="40px" height="40px" viewBox="0 0 40 39" version="1.1">
<g id="surface1">
<path style=" stroke:none;fill-rule:nonzero;fill:rgb(11.764706%,19.215687%,0.392157%);fill-opacity:1;" d="M 7.082031 0.03125 L 32.917969 0.03125 C 36.832031 0.03125 40.003906 3.199219 40.003906 7.101562 L 40.003906 31.898438 C 40.003906 35.800781 36.832031 38.96875 32.917969 38.96875 L 7.082031 38.96875 C 3.171875 38.96875 0 35.800781 0 31.898438 L 0 7.101562 C 0 3.199219 3.171875 0.03125 7.082031 0.03125 Z M 7.082031 0.03125 "/>
<path style=" stroke:none;fill-rule:nonzero;fill:rgb(60.000002%,90.980393%,24.705882%);fill-opacity:1;" d="M 8.652344 27.335938 L 8.652344 10.21875 C 8.652344 10.09375 8.707031 10.03125 8.8125 10.03125 C 9.097656 10.03125 9.4375 10.027344 9.832031 10.015625 C 10.226562 10.007812 10.652344 10 11.105469 9.988281 L 12.554688 9.964844 C 13.066406 9.953125 13.570312 9.949219 14.070312 9.949219 C 15.433594 9.949219 16.578125 10.117188 17.507812 10.457031 C 18.347656 10.742188 19.113281 11.207031 19.746094 11.824219 C 20.285156 12.359375 20.703125 13.003906 20.96875 13.714844 C 21.21875 14.40625 21.347656 15.136719 21.34375 15.871094 C 21.34375 17.300781 21.011719 18.476562 20.351562 19.40625 C 19.683594 20.339844 18.75 21.046875 17.667969 21.433594 C 16.464844 21.863281 15.191406 22.078125 13.910156 22.0625 C 13.515625 22.0625 13.238281 22.058594 13.078125 22.046875 C 12.917969 22.039062 12.675781 22.035156 12.355469 22.035156 L 12.355469 27.3125 C 12.371094 27.429688 12.289062 27.535156 12.175781 27.554688 C 12.152344 27.558594 12.132812 27.558594 12.113281 27.554688 L 8.839844 27.554688 C 8.714844 27.550781 8.652344 27.480469 8.652344 27.335938 Z M 12.355469 13.246094 L 12.355469 18.789062 C 12.585938 18.808594 12.800781 18.816406 13 18.816406 L 13.882812 18.816406 C 14.535156 18.828125 15.179688 18.734375 15.800781 18.550781 C 16.335938 18.390625 16.808594 18.085938 17.171875 17.664062 C 17.519531 17.253906 17.695312 16.683594 17.695312 15.949219 C 17.707031 15.433594 17.574219 14.921875 17.304688 14.476562 C 17.019531 14.046875 16.613281 13.714844 16.132812 13.527344 C 15.511719 13.285156 14.84375 13.171875 14.175781 13.191406 C 13.746094 13.191406 13.367188 13.195312 13.035156 13.207031 C 12.703125 13.214844 12.476562 13.226562 12.351562 13.246094 Z M 12.355469 13.246094 "/>
<path style=" stroke:none;fill-rule:nonzero;fill:rgb(60.000002%,90.980393%,24.705882%);fill-opacity:1;" d="M 31.300781 24.898438 L 31.300781 27.09375 C 31.300781 27.292969 31.226562 27.40625 31.085938 27.445312 C 30.734375 27.554688 30.375 27.644531 30.011719 27.710938 C 29.585938 27.789062 29.15625 27.824219 28.722656 27.820312 C 27.5625 27.820312 26.648438 27.515625 25.988281 26.90625 C 25.324219 26.300781 24.996094 25.328125 24.996094 23.988281 L 24.996094 17.34375 L 23.410156 17.34375 C 23.265625 17.34375 23.195312 17.265625 23.195312 17.101562 L 23.195312 14.449219 C 23.195312 14.304688 23.273438 14.234375 23.4375 14.234375 L 25.019531 14.234375 C 25.039062 13.929688 25.058594 13.578125 25.085938 13.175781 C 25.113281 12.773438 25.148438 12.371094 25.195312 11.96875 C 25.238281 11.566406 25.277344 11.242188 25.316406 10.992188 C 25.332031 10.9375 25.359375 10.890625 25.394531 10.84375 C 25.429688 10.800781 25.472656 10.769531 25.527344 10.75 L 28.722656 10.351562 C 28.773438 10.335938 28.824219 10.339844 28.871094 10.359375 C 28.90625 10.375 28.910156 10.421875 28.910156 10.515625 C 28.875 10.925781 28.851562 11.484375 28.832031 12.191406 C 28.816406 12.894531 28.800781 13.578125 28.78125 14.238281 L 31.277344 14.238281 C 31.386719 14.238281 31.4375 14.308594 31.4375 14.453125 L 31.4375 17.160156 C 31.453125 17.246094 31.394531 17.332031 31.304688 17.347656 L 28.75 17.347656 L 28.75 23.078125 C 28.75 23.6875 28.855469 24.121094 29.0625 24.378906 C 29.269531 24.636719 29.652344 24.769531 30.203125 24.769531 C 30.363281 24.769531 30.515625 24.765625 30.660156 24.753906 C 30.804688 24.746094 30.945312 24.734375 31.089844 24.714844 C 31.136719 24.695312 31.191406 24.703125 31.234375 24.726562 C 31.285156 24.769531 31.308594 24.835938 31.300781 24.898438 Z M 31.300781 24.898438 "/>
</g>
</svg>
