<?xml version="1.0" encoding="UTF-8"?>
<svg xmlns="http://www.w3.org/2000/svg" xmlns:xlink="http://www.w3.org/1999/xlink" width="40px" height="40px" viewBox="0 0 40 40" version="1.1">
<g id="surface1">
<path style=" stroke:none;fill-rule:nonzero;fill:rgb(15.686275%,34.117648%,68.627453%);fill-opacity:1;" d="M 0.433594 0.414062 L 39.542969 0.414062 L 39.542969 39.527344 L 0.433594 39.527344 Z M 0.433594 0.414062 "/>
<path style=" stroke:none;fill-rule:nonzero;fill:rgb(100%,100%,100%);fill-opacity:1;" d="M 16.390625 24.15625 C 16.664062 24.546875 16.976562 24.742188 17.210938 24.742188 C 17.523438 24.742188 17.875 24.429688 18.109375 23.921875 C 18.929688 22.394531 19.480469 20.871094 19.988281 19.382812 C 20.730469 17.3125 21.472656 15.199219 23 13.203125 C 24.601562 11.132812 27.144531 10.308594 28.042969 10.074219 C 28.199219 10.035156 28.238281 9.839844 28.121094 9.761719 C 25.894531 7.964844 23.039062 6.90625 19.988281 6.90625 C 18.460938 6.90625 17.015625 7.179688 15.683594 7.652344 C 14.003906 8.238281 12.90625 9.800781 12.867188 11.5625 C 12.75 15.003906 13.300781 19.855469 16.390625 24.15625 "/>
<path style=" stroke:none;fill-rule:nonzero;fill:rgb(100%,100%,100%);fill-opacity:1;" d="M 28.511719 13.125 C 27.105469 13.320312 26.089844 14.300781 25.5 15.082031 C 24.289062 16.726562 23.664062 18.445312 22.960938 20.441406 C 22.414062 22.003906 21.824219 23.648438 20.886719 25.40625 C 20.105469 26.855469 18.851562 28.339844 17.445312 28.457031 L 17.210938 28.457031 C 15.917969 28.457031 14.707031 27.167969 13.886719 25.992188 C 10.757812 21.574219 9.859375 16.765625 9.78125 13.007812 C 9.78125 12.65625 9.347656 12.539062 9.152344 12.851562 C 7.316406 15.550781 6.414062 19.34375 7.394531 23.140625 C 8.605469 28.027344 12.554688 31.664062 17.09375 32.683594 C 25.582031 34.597656 33.089844 28.144531 33.089844 19.972656 C 33.089844 18.328125 32.777344 16.765625 32.230469 15.316406 C 31.839844 14.261719 30.9375 13.4375 29.804688 13.203125 C 29.335938 13.085938 28.90625 13.085938 28.511719 13.125 "/>
</g>
</svg>
