<?xml version="1.0" encoding="UTF-8"?>
<svg xmlns="http://www.w3.org/2000/svg" xmlns:xlink="http://www.w3.org/1999/xlink" width="40px" height="40px" viewBox="0 0 40 40" version="1.1">
<g id="surface1">
<path style="fill-rule:nonzero;fill:rgb(38.82353%,67.058825%,89.803922%);fill-opacity:1;stroke-width:1;stroke-linecap:butt;stroke-linejoin:miter;stroke:rgb(0%,0%,0%);stroke-opacity:1;stroke-miterlimit:4;" d="M 489.729282 256.064993 C 489.729282 127.611636 385.628351 23.510704 257.174994 23.510704 C 128.721636 23.510704 24.620705 127.611636 24.620705 256.064993 C 24.620705 384.51835 128.721636 488.619281 257.174994 488.619281 C 385.628351 488.619281 489.729282 384.51835 489.729282 256.064993 Z M 489.729282 256.064993 " transform="matrix(0.0858167,0,0,0.0858167,-2.069898,-1.974641)"/>
<path style=" stroke:none;fill-rule:nonzero;fill:rgb(0%,0.392157%,0.784314%);fill-opacity:1;" d="M 5.226562 27.371094 C 4.4375 26.515625 4.296875 25.46875 4.363281 24.300781 C 4.363281 24.191406 4.359375 24.152344 4.371094 24.085938 C 4.375 23.980469 4.367188 23.902344 4.355469 23.722656 C 4.269531 23.910156 4.226562 24.003906 4.183594 24.09375 C 4.1875 24.09375 4.179688 24.09375 4.164062 24.078125 C 4.109375 23.980469 4.070312 23.90625 4.039062 23.792969 C 4.042969 23.621094 4.039062 23.484375 4.050781 23.316406 C 4.105469 22.925781 4.144531 22.566406 4.207031 22.1875 C 4.246094 22.042969 4.257812 21.917969 4.277344 21.773438 C 4.285156 21.757812 4.285156 21.722656 4.300781 21.699219 C 4.3125 21.585938 4.308594 21.496094 4.300781 21.40625 C 3.984375 21.472656 4.148438 21.214844 4.101562 21.085938 C 4.109375 21.070312 4.109375 21.039062 4.132812 21.019531 C 4.164062 20.953125 4.171875 20.898438 4.183594 20.847656 C 4.1875 20.84375 4.183594 20.839844 4.203125 20.820312 C 4.242188 20.730469 4.253906 20.660156 4.28125 20.554688 C 4.460938 19.597656 4.625 18.671875 4.796875 17.707031 C 4.574219 17.765625 4.4375 17.800781 4.296875 17.835938 C 4.273438 17.804688 4.25 17.777344 4.226562 17.746094 C 4.378906 17.511719 4.535156 17.277344 4.652344 17.097656 C 4.539062 17.039062 4.40625 17.007812 4.335938 16.921875 C 4.28125 16.855469 4.28125 16.714844 4.308594 16.621094 C 4.34375 16.507812 4.4375 16.410156 4.519531 16.285156 C 4.539062 16.253906 4.542969 16.242188 4.5625 16.21875 C 4.605469 16.191406 4.613281 16.164062 4.621094 16.132812 C 4.628906 16.132812 4.625 16.113281 4.640625 16.113281 C 4.675781 16.09375 4.683594 16.078125 4.699219 16.035156 C 4.808594 15.882812 4.894531 15.753906 5.007812 15.613281 C 5.15625 15.464844 5.277344 15.328125 5.398438 15.191406 C 5.398438 15.191406 5.402344 15.191406 5.421875 15.1875 C 5.46875 15.160156 5.480469 15.136719 5.480469 15.105469 C 5.484375 15.105469 5.484375 15.097656 5.503906 15.09375 C 5.546875 15.070312 5.558594 15.050781 5.5625 15.015625 C 5.574219 15.011719 5.570312 14.992188 5.582031 14.992188 C 5.613281 14.976562 5.621094 14.960938 5.636719 14.925781 C 5.746094 14.796875 5.828125 14.6875 5.933594 14.574219 C 5.976562 14.554688 5.988281 14.535156 5.992188 14.503906 C 6 14.5 6 14.484375 6.015625 14.480469 C 6.050781 14.464844 6.0625 14.445312 6.070312 14.417969 C 6.082031 14.410156 6.085938 14.386719 6.101562 14.382812 C 6.128906 14.375 6.136719 14.359375 6.144531 14.332031 C 6.160156 14.324219 6.167969 14.292969 6.1875 14.285156 C 6.21875 14.238281 6.230469 14.203125 6.253906 14.140625 C 5.957031 13.828125 6.324219 13.609375 6.355469 13.351562 C 6.367188 13.351562 6.371094 13.320312 6.394531 13.296875 C 6.453125 13.222656 6.484375 13.167969 6.53125 13.109375 C 6.566406 13.09375 6.570312 13.074219 6.589844 13.03125 C 6.695312 12.902344 6.777344 12.789062 6.871094 12.675781 C 6.90625 12.660156 6.917969 12.640625 6.925781 12.613281 C 6.9375 12.605469 6.945312 12.578125 6.957031 12.578125 C 6.980469 12.570312 6.988281 12.558594 7.007812 12.523438 C 7.28125 12.226562 7.53125 11.945312 7.796875 11.652344 C 7.777344 11.597656 7.746094 11.550781 7.699219 11.484375 C 7.679688 11.453125 7.675781 11.441406 7.695312 11.40625 C 7.835938 11.269531 7.949219 11.152344 8.078125 11.035156 C 8.113281 11.027344 8.121094 11.007812 8.148438 10.976562 C 8.308594 10.765625 8.441406 10.566406 8.589844 10.363281 C 8.625 10.34375 8.632812 10.328125 8.640625 10.292969 C 8.65625 10.289062 8.664062 10.257812 8.671875 10.257812 C 8.683594 10.261719 8.683594 10.230469 8.714844 10.207031 C 8.808594 10.117188 8.871094 10.046875 8.941406 9.980469 C 8.945312 9.988281 8.949219 9.960938 8.96875 9.957031 C 8.988281 9.949219 9.007812 9.914062 9.023438 9.914062 C 9.050781 9.90625 9.058594 9.890625 9.066406 9.871094 C 9.078125 9.867188 9.089844 9.839844 9.105469 9.839844 C 9.140625 9.828125 9.152344 9.808594 9.160156 9.785156 C 9.171875 9.78125 9.175781 9.757812 9.191406 9.757812 C 9.226562 9.742188 9.230469 9.726562 9.246094 9.6875 C 9.296875 9.613281 9.320312 9.558594 9.359375 9.5 C 9.390625 9.488281 9.394531 9.472656 9.410156 9.433594 C 9.734375 9.191406 10.023438 8.957031 10.332031 8.757812 C 10.519531 8.636719 10.789062 8.613281 10.921875 8.457031 C 11.386719 7.914062 12.039062 7.738281 12.65625 7.488281 C 12.761719 7.449219 12.871094 7.410156 12.960938 7.34375 C 13.152344 7.207031 13.320312 7.042969 13.511719 6.910156 C 13.613281 6.839844 13.773438 6.84375 13.855469 6.761719 C 14.273438 6.351562 14.8125 6.277344 15.34375 6.167969 C 15.53125 6.128906 15.71875 6.082031 15.929688 6.035156 C 15.699219 5.738281 15.710938 5.644531 16.015625 5.597656 C 16.375 5.539062 16.75 5.546875 17.117188 5.515625 C 17.203125 5.507812 17.367188 5.433594 17.363281 5.417969 C 17.285156 5.085938 17.535156 5.167969 17.671875 5.195312 C 17.859375 5.234375 18.035156 5.335938 18.273438 5.433594 C 18.445312 5.171875 18.621094 4.902344 18.820312 4.632812 C 18.96875 4.632812 19.085938 4.636719 19.21875 4.671875 C 19.335938 4.886719 19.445312 5.074219 19.554688 5.265625 C 19.789062 5.242188 20.03125 5.214844 20.292969 5.183594 C 20.269531 5.300781 20.253906 5.382812 20.234375 5.464844 C 20.566406 5.402344 20.859375 5.328125 21.15625 5.300781 C 21.300781 5.285156 21.523438 5.292969 21.597656 5.382812 C 21.8125 5.65625 22.085938 5.597656 22.363281 5.617188 C 22.730469 5.640625 23.105469 5.664062 23.457031 5.753906 C 23.808594 5.839844 24.128906 6.109375 24.472656 6.128906 C 25.371094 6.179688 26.03125 6.789062 26.832031 7.054688 C 26.882812 7.070312 26.957031 7.117188 26.960938 7.15625 C 26.996094 7.480469 27.273438 7.484375 27.484375 7.550781 C 28.558594 7.898438 29.363281 8.703125 30.339844 9.21875 C 30.410156 9.257812 30.464844 9.335938 30.519531 9.398438 C 31.199219 10.140625 31.707031 11.050781 32.632812 11.546875 C 32.6875 11.578125 32.722656 11.65625 32.816406 11.773438 C 32.609375 11.726562 32.476562 11.699219 32.328125 11.648438 C 32.25 11.613281 32.183594 11.601562 32.023438 11.574219 C 32.152344 11.671875 32.207031 11.714844 32.269531 11.78125 C 32.539062 12.078125 32.800781 12.347656 33.058594 12.632812 C 33.074219 12.667969 33.089844 12.679688 33.121094 12.707031 C 33.414062 13.035156 33.691406 13.335938 33.992188 13.65625 C 34.082031 13.722656 34.15625 13.769531 34.226562 13.816406 C 34.230469 13.816406 34.230469 13.820312 34.238281 13.835938 C 34.261719 13.871094 34.285156 13.882812 34.316406 13.890625 C 34.320312 13.902344 34.351562 13.90625 34.351562 13.921875 C 34.351562 13.933594 34.367188 13.949219 34.367188 13.949219 C 34.367188 13.949219 34.394531 13.949219 34.402344 13.964844 C 34.40625 13.980469 34.4375 13.996094 34.4375 14.007812 C 34.4375 14.019531 34.453125 14.039062 34.453125 14.039062 C 34.453125 14.039062 34.480469 14.039062 34.484375 14.050781 C 34.484375 14.066406 34.511719 14.074219 34.496094 14.097656 C 34.285156 14.0625 34.089844 14.003906 33.890625 13.941406 C 33.824219 14.011719 33.753906 14.085938 33.679688 14.167969 C 34.015625 14.578125 34.335938 14.96875 34.664062 15.386719 C 34.683594 15.429688 34.695312 15.445312 34.707031 15.472656 C 34.710938 15.507812 34.722656 15.515625 34.75 15.546875 C 34.761719 15.59375 34.773438 15.613281 34.78125 15.644531 C 34.789062 15.683594 34.804688 15.699219 34.828125 15.726562 C 34.839844 15.765625 34.847656 15.78125 34.855469 15.816406 C 34.875 15.878906 34.894531 15.917969 34.914062 15.980469 C 34.917969 16.019531 34.925781 16.035156 34.925781 16.082031 C 34.949219 16.230469 34.976562 16.347656 35.007812 16.492188 C 35.050781 16.566406 35.089844 16.609375 35.125 16.671875 C 35.132812 16.707031 35.148438 16.714844 35.171875 16.722656 C 35.171875 16.730469 35.191406 16.734375 35.191406 16.753906 C 35.207031 16.800781 35.226562 16.816406 35.265625 16.851562 C 35.292969 16.898438 35.308594 16.910156 35.320312 16.933594 C 35.316406 16.941406 35.34375 16.953125 35.347656 16.96875 C 35.347656 16.980469 35.375 16.992188 35.375 17.007812 C 35.386719 17.046875 35.40625 17.058594 35.429688 17.066406 C 35.429688 17.074219 35.449219 17.078125 35.449219 17.097656 C 35.464844 17.140625 35.488281 17.15625 35.523438 17.1875 C 35.601562 17.277344 35.671875 17.339844 35.746094 17.429688 C 35.84375 17.535156 35.933594 17.617188 36.019531 17.730469 C 35.949219 17.90625 35.878906 18.050781 35.804688 18.191406 C 35.773438 18.179688 35.742188 18.167969 35.707031 18.152344 C 35.800781 18.332031 35.890625 18.511719 35.980469 18.691406 C 35.957031 18.710938 35.9375 18.726562 35.917969 18.746094 C 35.714844 18.617188 35.507812 18.492188 35.207031 18.300781 C 35.328125 18.714844 35.472656 19.015625 35.503906 19.332031 C 35.585938 20.199219 35.480469 21.078125 35.675781 21.945312 C 35.816406 22.566406 35.847656 23.207031 35.929688 23.839844 C 35.898438 23.902344 35.871094 23.964844 35.820312 24.0625 C 35.753906 23.972656 35.695312 23.898438 35.636719 23.820312 C 35.609375 23.828125 35.582031 23.839844 35.550781 23.847656 C 35.550781 24.46875 35.632812 25.105469 35.527344 25.707031 C 35.433594 26.21875 35.15625 26.714844 34.886719 27.171875 C 34.800781 27.316406 34.476562 27.324219 34.230469 27.453125 C 33.929688 28.101562 33.757812 28.753906 33.167969 29.167969 C 33.097656 29.175781 33.058594 29.1875 32.980469 29.199219 C 32.792969 29.199219 32.640625 29.21875 32.488281 29.203125 C 32.238281 29.179688 32.054688 29.25 31.960938 29.515625 C 31.917969 29.542969 31.90625 29.566406 31.878906 29.609375 C 31.554688 29.902344 31.210938 30.011719 30.800781 29.902344 C 30.65625 29.808594 30.515625 29.746094 30.359375 29.660156 C 30.195312 29.476562 30.046875 29.3125 29.898438 29.136719 C 29.886719 29.101562 29.867188 29.074219 29.855469 29.039062 C 29.859375 29.023438 29.839844 29.003906 29.84375 28.96875 C 29.757812 28.671875 29.664062 28.40625 29.570312 28.128906 C 29.558594 28.085938 29.539062 28.078125 29.5 28.050781 C 29.042969 27.28125 28.996094 26.480469 29.121094 25.65625 C 29.257812 24.753906 29.472656 23.859375 29.550781 22.953125 C 29.644531 21.859375 29.679688 20.753906 29.648438 19.65625 C 29.621094 18.769531 29.753906 17.765625 28.59375 17.234375 C 28.6875 17.542969 28.765625 17.800781 28.835938 18.058594 C 28.910156 18.339844 28.976562 18.621094 29.050781 18.933594 C 28.832031 18.914062 28.703125 18.902344 28.554688 18.886719 C 28.976562 19.820312 29.089844 20.511719 28.898438 21.058594 C 28.785156 20.902344 28.683594 20.769531 28.585938 20.632812 C 28.679688 21.515625 28.847656 22.335938 28.695312 23.21875 C 28.484375 23.128906 28.332031 23.066406 28.25 23.035156 C 28.328125 23.601562 28.414062 24.191406 28.5 24.777344 C 28.558594 25.1875 28.613281 25.59375 28.660156 26.039062 C 28.65625 26.191406 28.660156 26.308594 28.65625 26.460938 C 28.578125 26.890625 28.515625 27.289062 28.453125 27.6875 C 28.382812 27.6875 28.316406 27.691406 28.246094 27.691406 C 28.117188 27.277344 27.988281 26.859375 27.859375 26.445312 C 27.832031 26.453125 27.800781 26.457031 27.769531 26.460938 C 27.8125 26.878906 27.851562 27.296875 27.886719 27.75 C 27.910156 27.929688 27.941406 28.082031 27.96875 28.25 C 27.972656 28.285156 27.976562 28.300781 27.972656 28.347656 C 27.996094 28.5625 28.027344 28.746094 28.050781 28.953125 C 28.046875 29.015625 28.050781 29.054688 28.027344 29.117188 C 27.929688 29.121094 27.863281 29.105469 27.785156 29.054688 C 27.714844 28.984375 27.652344 28.941406 27.589844 28.902344 C 27.546875 28.925781 27.503906 28.949219 27.460938 28.96875 C 27.632812 29.410156 27.800781 29.851562 27.972656 30.328125 C 28.027344 30.652344 28.082031 30.941406 28.109375 31.238281 C 28.011719 31.191406 27.941406 31.140625 27.863281 31.0625 C 27.789062 30.996094 27.730469 30.957031 27.667969 30.917969 C 27.679688 30.996094 27.695312 31.074219 27.710938 31.191406 C 27.742188 31.601562 27.769531 31.976562 27.777344 32.371094 C 27.605469 32.554688 27.453125 32.714844 27.257812 32.917969 C 26.976562 32.933594 26.613281 32.949219 26.210938 32.960938 C 25.335938 32.960938 24.507812 32.964844 23.636719 32.960938 C 23.113281 32.953125 22.632812 32.953125 22.117188 32.953125 C 22.042969 32.308594 21.972656 31.710938 21.902344 31.078125 C 21.8125 31.234375 21.738281 31.363281 21.617188 31.578125 C 21.488281 31.246094 21.386719 30.980469 21.257812 30.644531 C 21.054688 30.875 20.878906 31.070312 20.636719 31.347656 C 20.558594 31.054688 20.503906 30.839844 20.46875 30.707031 C 20.191406 30.789062 19.929688 30.871094 19.664062 30.953125 C 19.566406 30.800781 19.484375 30.675781 19.378906 30.503906 C 19.21875 30.695312 19.089844 30.851562 18.949219 31.015625 C 18.855469 30.894531 18.78125 30.796875 18.695312 30.691406 C 18.585938 30.980469 18.484375 31.246094 18.363281 31.5625 C 18.214844 31.339844 18.121094 31.199219 17.960938 30.957031 C 17.925781 31.699219 17.894531 32.3125 17.863281 32.96875 C 17.261719 32.96875 16.734375 32.96875 16.167969 32.960938 C 15.296875 32.957031 14.464844 32.960938 13.601562 32.960938 C 13.246094 32.953125 12.929688 32.953125 12.613281 32.953125 C 12.632812 32.90625 12.652344 32.859375 12.667969 32.808594 C 12.523438 32.710938 12.375 32.609375 12.226562 32.476562 C 12.199219 32.207031 12.171875 31.972656 12.148438 31.777344 C 12.0625 31.710938 11.992188 31.652344 11.941406 31.574219 C 12.035156 31.195312 12.480469 30.929688 12.230469 30.429688 C 12.148438 30.648438 12.085938 30.8125 12 31.03125 C 11.925781 30.851562 11.878906 30.738281 11.828125 30.589844 C 11.792969 30.292969 11.761719 30.035156 11.734375 29.742188 C 11.6875 29.46875 11.628906 29.230469 11.589844 28.972656 C 11.566406 28.863281 11.53125 28.769531 11.496094 28.675781 C 11.5 28.667969 11.488281 28.660156 11.496094 28.621094 C 11.648438 27.734375 11.796875 26.882812 11.941406 26.03125 C 11.980469 25.804688 11.996094 25.578125 12.039062 25.226562 C 11.828125 25.476562 11.710938 25.621094 11.589844 25.761719 C 11.554688 25.753906 11.515625 25.742188 11.480469 25.734375 C 11.457031 25.53125 11.386719 25.320312 11.417969 25.125 C 11.480469 24.761719 11.613281 24.414062 11.699219 24.050781 C 11.796875 23.628906 11.878906 23.199219 11.953125 22.835938 C 11.636719 22.882812 11.417969 22.917969 11.113281 22.960938 C 11.402344 22.101562 11.574219 21.339844 11.457031 20.492188 C 11.3125 20.707031 11.203125 20.871094 11.023438 21.136719 C 10.835938 20.054688 11.296875 19.238281 11.527344 18.394531 C 11.421875 18.242188 11.316406 18.085938 11.304688 17.921875 C 11.277344 17.566406 11.296875 17.207031 11.296875 16.835938 C 11.160156 16.828125 11.015625 16.816406 10.867188 16.808594 C 10.535156 17.921875 10.253906 19.015625 10.320312 20.1875 C 10.417969 21.925781 10.378906 23.671875 10.800781 25.382812 C 11.015625 26.261719 10.957031 27.140625 10.503906 27.984375 C 10.382812 28.214844 10.292969 28.4375 10.179688 28.671875 C 10.15625 28.742188 10.152344 28.789062 10.136719 28.859375 C 10.128906 28.875 10.140625 28.917969 10.128906 28.945312 C 10.039062 29.128906 9.964844 29.28125 9.859375 29.453125 C 9.613281 29.597656 9.390625 29.726562 9.132812 29.859375 C 8.625 29.882812 8.15625 29.929688 7.910156 29.375 C 7.878906 29.304688 7.667969 29.308594 7.507812 29.269531 C 7.246094 29.230469 7.019531 29.199219 6.773438 29.140625 C 6.121094 28.714844 6 27.992188 5.695312 27.394531 C 5.53125 27.386719 5.378906 27.378906 5.226562 27.371094 M 24.847656 13.78125 C 24.835938 13.761719 24.816406 13.753906 24.75 13.726562 C 24.730469 13.726562 24.710938 13.730469 24.644531 13.707031 C 24.527344 13.714844 24.40625 13.722656 24.230469 13.730469 C 24.15625 13.765625 24.085938 13.800781 23.976562 13.832031 C 23.941406 13.855469 23.910156 13.882812 23.855469 13.898438 C 23.855469 13.898438 23.84375 13.921875 23.804688 13.917969 C 23.777344 13.933594 23.765625 13.953125 23.722656 14.015625 C 23.707031 14.066406 23.691406 14.117188 23.644531 14.226562 C 23.628906 14.402344 23.617188 14.582031 23.585938 14.835938 C 23.585938 15.042969 23.589844 15.25 23.558594 15.507812 C 23.511719 15.527344 23.464844 15.546875 23.394531 15.507812 C 23.183594 15.171875 22.976562 14.839844 22.746094 14.453125 C 22.628906 14.46875 22.507812 14.484375 22.320312 14.5 C 22.28125 14.519531 22.238281 14.539062 22.171875 14.546875 C 22.148438 14.550781 22.132812 14.5625 22.0625 14.578125 C 21.6875 14.636719 21.523438 14.886719 21.441406 15.230469 C 21.378906 15.476562 21.300781 15.71875 21.207031 15.957031 C 21.167969 16.054688 21.078125 16.136719 21.011719 16.226562 C 20.921875 16.144531 20.785156 16.078125 20.742188 15.972656 C 20.570312 15.574219 20.425781 15.164062 20.269531 14.757812 C 20.027344 14.757812 19.824219 14.789062 19.632812 14.75 C 19.339844 14.691406 19.222656 14.816406 19.15625 15.074219 C 19.09375 15.320312 19.015625 15.570312 18.902344 15.796875 C 18.839844 15.933594 18.699219 16.03125 18.589844 16.144531 C 18.511719 16.027344 18.40625 15.914062 18.363281 15.78125 C 18.253906 15.445312 18.171875 15.101562 18.078125 14.707031 C 18.027344 14.667969 17.976562 14.632812 17.886719 14.578125 C 17.886719 14.578125 17.84375 14.582031 17.828125 14.558594 C 17.808594 14.546875 17.789062 14.546875 17.71875 14.515625 C 17.671875 14.511719 17.625 14.503906 17.535156 14.464844 C 17.425781 14.480469 17.316406 14.492188 17.160156 14.546875 C 16.957031 14.886719 16.757812 15.226562 16.496094 15.582031 C 16.457031 15.542969 16.417969 15.5 16.390625 15.378906 C 16.382812 15.171875 16.375 14.964844 16.378906 14.691406 C 16.351562 14.519531 16.324219 14.34375 16.296875 14.113281 C 16.265625 14.070312 16.230469 14.027344 16.195312 13.945312 C 16.175781 13.917969 16.15625 13.910156 16.117188 13.898438 C 16.117188 13.898438 16.09375 13.90625 16.070312 13.871094 C 16.03125 13.859375 15.992188 13.847656 15.902344 13.804688 C 15.828125 13.78125 15.757812 13.753906 15.640625 13.695312 C 15.519531 13.707031 15.398438 13.71875 15.222656 13.726562 C 15.207031 13.738281 15.191406 13.75 15.144531 13.761719 C 15.125 13.773438 15.117188 13.789062 15.09375 13.820312 C 15.09375 13.820312 15.089844 13.847656 15.066406 13.851562 C 15.046875 13.863281 15.042969 13.875 15.011719 13.9375 C 15.007812 13.953125 15.007812 13.972656 14.96875 14.027344 C 14.984375 14.121094 14.996094 14.21875 15.007812 14.367188 C 15.015625 14.382812 15.023438 14.402344 15.027344 14.46875 C 15.058594 14.546875 15.089844 14.625 15.125 14.707031 C 15.191406 14.636719 15.257812 14.566406 15.371094 14.476562 C 15.394531 14.425781 15.417969 14.378906 15.496094 14.3125 C 15.535156 14.300781 15.570312 14.292969 15.652344 14.335938 C 15.679688 14.425781 15.707031 14.511719 15.730469 14.632812 C 15.738281 14.65625 15.75 14.671875 15.769531 14.746094 C 15.78125 14.808594 15.792969 14.871094 15.796875 14.980469 C 15.820312 15.019531 15.84375 15.0625 15.859375 15.167969 C 15.871094 15.234375 15.882812 15.300781 15.890625 15.410156 C 15.910156 15.449219 15.929688 15.488281 15.945312 15.589844 C 16.097656 15.769531 16.246094 15.949219 16.421875 16.167969 C 16.492188 16.15625 16.5625 16.140625 16.675781 16.089844 C 16.890625 15.726562 17.109375 15.367188 17.359375 14.992188 C 17.378906 14.980469 17.386719 14.960938 17.410156 14.929688 C 17.410156 14.929688 17.414062 14.90625 17.480469 14.898438 C 17.542969 14.910156 17.601562 14.921875 17.671875 14.980469 C 17.679688 14.996094 17.6875 15.007812 17.6875 15.089844 C 17.707031 15.292969 17.730469 15.496094 17.746094 15.777344 C 17.769531 16.878906 17.769531 16.878906 18.878906 16.894531 C 18.949219 16.894531 19.019531 16.894531 19.105469 16.894531 C 19.238281 16.511719 19.355469 16.136719 19.5 15.769531 C 19.542969 15.664062 19.65625 15.582031 19.734375 15.492188 C 19.835938 15.578125 19.976562 15.648438 20.027344 15.761719 C 20.171875 16.070312 20.265625 16.398438 20.402344 16.710938 C 20.4375 16.796875 20.539062 16.914062 20.609375 16.914062 C 20.964844 16.910156 21.324219 16.898438 21.671875 16.835938 C 21.792969 16.816406 21.953125 16.664062 21.984375 16.539062 C 22.089844 16.152344 22.140625 15.75 22.246094 15.304688 C 22.253906 15.210938 22.265625 15.117188 22.300781 14.980469 C 22.300781 14.964844 22.304688 14.949219 22.367188 14.914062 C 22.429688 14.910156 22.492188 14.90625 22.558594 14.929688 C 22.558594 14.929688 22.582031 14.933594 22.589844 14.96875 C 22.601562 14.988281 22.621094 15.003906 22.660156 15.066406 C 22.886719 15.421875 23.109375 15.773438 23.339844 16.1875 C 23.417969 16.167969 23.496094 16.148438 23.628906 16.113281 C 23.761719 15.917969 23.890625 15.722656 24.046875 15.492188 C 24.054688 15.449219 24.0625 15.40625 24.097656 15.304688 C 24.101562 15.234375 24.105469 15.167969 24.136719 15.066406 C 24.148438 15.023438 24.15625 14.980469 24.1875 14.875 C 24.1875 14.808594 24.191406 14.746094 24.222656 14.660156 C 24.238281 14.640625 24.242188 14.621094 24.265625 14.535156 C 24.296875 14.453125 24.328125 14.367188 24.417969 14.296875 C 24.453125 14.308594 24.492188 14.320312 24.535156 14.386719 C 24.574219 14.421875 24.609375 14.460938 24.671875 14.539062 C 24.730469 14.59375 24.789062 14.644531 24.855469 14.707031 C 24.886719 14.601562 24.914062 14.511719 24.960938 14.367188 C 24.960938 14.347656 24.960938 14.332031 24.992188 14.273438 C 24.984375 14.179688 24.972656 14.085938 24.960938 13.9375 C 24.949219 13.921875 24.933594 13.910156 24.921875 13.871094 C 24.914062 13.851562 24.898438 13.84375 24.875 13.820312 C 24.875 13.820312 24.847656 13.8125 24.847656 13.78125 M 23.785156 10.933594 C 23.746094 10.886719 23.71875 10.835938 23.675781 10.800781 C 23.359375 10.5 22.898438 10.453125 22.539062 10.683594 C 22.148438 10.929688 21.984375 11.417969 22.144531 11.84375 C 22.285156 12.210938 22.65625 12.429688 23.066406 12.386719 C 23.511719 12.339844 23.824219 12.023438 23.871094 11.53125 C 23.886719 11.355469 23.839844 11.167969 23.785156 10.933594 M 16.640625 12.324219 C 16.695312 12.339844 16.746094 12.363281 16.804688 12.371094 C 17.277344 12.4375 17.625 12.273438 17.800781 11.894531 C 17.972656 11.523438 17.882812 11.085938 17.578125 10.796875 C 17.277344 10.519531 16.789062 10.457031 16.464844 10.652344 C 16.128906 10.855469 15.972656 11.253906 16.132812 11.703125 C 16.210938 11.925781 16.429688 12.097656 16.640625 12.324219 Z M 16.640625 12.324219 "/>
<path style=" stroke:none;fill-rule:nonzero;fill:rgb(38.82353%,67.058825%,89.803922%);fill-opacity:1;" d="M 24.960938 14.3125 C 24.960938 14.332031 24.960938 14.347656 24.925781 14.40625 C 24.8125 14.460938 24.730469 14.480469 24.648438 14.496094 C 24.609375 14.460938 24.574219 14.421875 24.53125 14.335938 C 24.496094 14.25 24.460938 14.21875 24.425781 14.1875 C 24.402344 14.21875 24.382812 14.25 24.359375 14.28125 C 24.328125 14.367188 24.296875 14.453125 24.238281 14.578125 C 24.195312 14.636719 24.191406 14.65625 24.195312 14.679688 C 24.191406 14.746094 24.1875 14.808594 24.15625 14.917969 C 24.121094 15.011719 24.113281 15.058594 24.105469 15.101562 C 24.105469 15.167969 24.101562 15.234375 24.070312 15.347656 C 24.03125 15.4375 24.027344 15.484375 24.019531 15.527344 C 23.890625 15.722656 23.761719 15.917969 23.570312 16.121094 C 23.453125 16.128906 23.394531 16.128906 23.335938 16.128906 C 23.109375 15.773438 22.886719 15.421875 22.648438 15.019531 C 22.625 14.953125 22.609375 14.9375 22.582031 14.933594 C 22.582031 14.933594 22.558594 14.929688 22.539062 14.898438 C 22.449219 14.890625 22.378906 14.914062 22.304688 14.933594 C 22.304688 14.949219 22.300781 14.964844 22.269531 15.023438 C 22.230469 15.160156 22.222656 15.253906 22.214844 15.351562 C 22.140625 15.75 22.089844 16.152344 21.984375 16.539062 C 21.953125 16.664062 21.792969 16.816406 21.671875 16.835938 C 21.324219 16.898438 20.964844 16.910156 20.609375 16.914062 C 20.539062 16.914062 20.4375 16.796875 20.402344 16.710938 C 20.265625 16.398438 20.171875 16.070312 20.027344 15.761719 C 19.976562 15.648438 19.835938 15.578125 19.734375 15.492188 C 19.65625 15.582031 19.542969 15.664062 19.5 15.769531 C 19.355469 16.136719 19.238281 16.511719 19.105469 16.894531 C 19.019531 16.894531 18.949219 16.894531 18.878906 16.894531 C 17.769531 16.878906 17.769531 16.878906 17.753906 15.703125 C 17.738281 15.425781 17.714844 15.222656 17.695312 15.019531 C 17.6875 15.007812 17.679688 14.996094 17.65625 14.933594 C 17.566406 14.894531 17.492188 14.898438 17.414062 14.90625 C 17.414062 14.90625 17.410156 14.929688 17.382812 14.9375 C 17.335938 14.964844 17.328125 14.984375 17.324219 15.007812 C 17.109375 15.367188 16.890625 15.726562 16.625 16.109375 C 16.515625 16.132812 16.457031 16.128906 16.398438 16.128906 C 16.246094 15.949219 16.097656 15.769531 15.949219 15.535156 C 15.9375 15.441406 15.917969 15.402344 15.894531 15.363281 C 15.882812 15.300781 15.871094 15.234375 15.863281 15.113281 C 15.847656 15.015625 15.824219 14.972656 15.804688 14.933594 C 15.792969 14.871094 15.78125 14.808594 15.773438 14.695312 C 15.769531 14.625 15.757812 14.609375 15.734375 14.597656 C 15.707031 14.511719 15.679688 14.425781 15.625 14.285156 C 15.546875 14.269531 15.492188 14.300781 15.441406 14.332031 C 15.417969 14.378906 15.394531 14.425781 15.320312 14.484375 C 15.191406 14.46875 15.109375 14.445312 15.03125 14.417969 C 15.023438 14.402344 15.015625 14.382812 15.011719 14.308594 C 15.011719 14.164062 15.007812 14.078125 15.007812 13.992188 C 15.007812 13.972656 15.007812 13.953125 15.039062 13.914062 C 15.082031 13.878906 15.089844 13.867188 15.089844 13.847656 C 15.089844 13.847656 15.09375 13.820312 15.121094 13.8125 C 15.164062 13.796875 15.171875 13.78125 15.175781 13.761719 C 15.191406 13.75 15.207031 13.738281 15.285156 13.730469 C 15.457031 13.734375 15.570312 13.734375 15.683594 13.730469 C 15.757812 13.753906 15.828125 13.78125 15.941406 13.839844 C 16.015625 13.882812 16.054688 13.894531 16.09375 13.90625 C 16.09375 13.90625 16.117188 13.898438 16.128906 13.925781 C 16.152344 13.972656 16.175781 13.980469 16.199219 13.984375 C 16.230469 14.027344 16.265625 14.070312 16.292969 14.175781 C 16.316406 14.414062 16.339844 14.585938 16.367188 14.757812 C 16.375 14.964844 16.382812 15.171875 16.382812 15.445312 C 16.402344 15.566406 16.429688 15.621094 16.460938 15.675781 C 16.492188 15.640625 16.523438 15.601562 16.554688 15.566406 C 16.757812 15.226562 16.957031 14.886719 17.214844 14.527344 C 17.371094 14.503906 17.476562 14.5 17.578125 14.5 C 17.625 14.503906 17.671875 14.511719 17.753906 14.546875 C 17.789062 14.578125 17.816406 14.585938 17.816406 14.585938 C 17.816406 14.585938 17.84375 14.582031 17.84375 14.582031 C 17.84375 14.582031 17.886719 14.578125 17.914062 14.609375 C 17.988281 14.675781 18.03125 14.71875 18.078125 14.757812 C 18.171875 15.101562 18.253906 15.445312 18.363281 15.78125 C 18.40625 15.914062 18.511719 16.027344 18.589844 16.144531 C 18.699219 16.03125 18.839844 15.933594 18.902344 15.796875 C 19.015625 15.570312 19.09375 15.320312 19.15625 15.074219 C 19.222656 14.816406 19.339844 14.691406 19.632812 14.75 C 19.824219 14.789062 20.027344 14.757812 20.269531 14.757812 C 20.425781 15.164062 20.570312 15.574219 20.742188 15.972656 C 20.785156 16.078125 20.921875 16.144531 21.011719 16.226562 C 21.078125 16.136719 21.167969 16.054688 21.207031 15.957031 C 21.300781 15.71875 21.378906 15.476562 21.441406 15.230469 C 21.523438 14.886719 21.6875 14.636719 22.109375 14.582031 C 22.175781 14.585938 22.1875 14.574219 22.199219 14.558594 C 22.238281 14.539062 22.28125 14.519531 22.386719 14.503906 C 22.554688 14.503906 22.660156 14.503906 22.765625 14.503906 C 22.976562 14.839844 23.183594 15.171875 23.410156 15.5625 C 23.480469 15.5625 23.535156 15.511719 23.589844 15.457031 C 23.589844 15.25 23.585938 15.042969 23.617188 14.773438 C 23.65625 14.53125 23.667969 14.351562 23.675781 14.171875 C 23.691406 14.117188 23.707031 14.066406 23.765625 13.996094 C 23.828125 13.960938 23.839844 13.945312 23.84375 13.921875 C 23.84375 13.921875 23.855469 13.898438 23.886719 13.902344 C 23.949219 13.882812 23.984375 13.859375 24.015625 13.835938 C 24.085938 13.800781 24.15625 13.765625 24.292969 13.734375 C 24.46875 13.734375 24.578125 13.734375 24.691406 13.730469 C 24.710938 13.730469 24.730469 13.726562 24.777344 13.757812 C 24.8125 13.804688 24.828125 13.8125 24.847656 13.8125 C 24.847656 13.8125 24.875 13.820312 24.878906 13.847656 C 24.894531 13.886719 24.90625 13.894531 24.921875 13.894531 C 24.933594 13.910156 24.949219 13.921875 24.957031 13.996094 C 24.957031 14.140625 24.960938 14.226562 24.960938 14.3125 Z M 24.960938 14.3125 "/>
<path style=" stroke:none;fill-rule:nonzero;fill:rgb(38.82353%,67.058825%,89.803922%);fill-opacity:1;" d="M 23.800781 10.960938 C 23.839844 11.167969 23.886719 11.355469 23.871094 11.53125 C 23.824219 12.023438 23.511719 12.339844 23.066406 12.386719 C 22.65625 12.429688 22.285156 12.210938 22.144531 11.84375 C 21.984375 11.417969 22.148438 10.929688 22.539062 10.683594 C 22.898438 10.453125 23.359375 10.5 23.675781 10.800781 C 23.71875 10.835938 23.746094 10.886719 23.800781 10.960938 Z M 23.800781 10.960938 "/>
<path style=" stroke:none;fill-rule:nonzero;fill:rgb(38.82353%,67.058825%,89.803922%);fill-opacity:1;" d="M 16.613281 12.308594 C 16.429688 12.097656 16.210938 11.925781 16.132812 11.703125 C 15.972656 11.253906 16.128906 10.855469 16.464844 10.652344 C 16.789062 10.457031 17.277344 10.519531 17.578125 10.796875 C 17.882812 11.085938 17.972656 11.523438 17.800781 11.894531 C 17.625 12.273438 17.277344 12.4375 16.804688 12.371094 C 16.746094 12.363281 16.695312 12.339844 16.613281 12.308594 Z M 16.613281 12.308594 "/>
<path style=" stroke:none;fill-rule:nonzero;fill:rgb(52.941179%,71.764708%,88.235295%);fill-opacity:1;" d="M 32.980469 29.199219 C 32.695312 29.304688 32.371094 29.410156 32.011719 29.511719 C 32.054688 29.25 32.238281 29.179688 32.488281 29.203125 C 32.640625 29.21875 32.792969 29.199219 32.980469 29.199219 Z M 32.980469 29.199219 "/>
<path style=" stroke:none;fill-rule:nonzero;fill:rgb(25.098041%,52.941179%,72.549021%);fill-opacity:1;" d="M 4.300781 21.699219 C 4.070312 21.585938 3.800781 21.464844 4.070312 21.121094 C 4.148438 21.214844 3.984375 21.472656 4.300781 21.40625 C 4.308594 21.496094 4.3125 21.585938 4.300781 21.699219 Z M 4.300781 21.699219 "/>
<path style=" stroke:none;fill-rule:nonzero;fill:rgb(43.137255%,65.490198%,83.137256%);fill-opacity:1;" d="M 27.972656 28.347656 C 28.019531 28.503906 28.0625 28.691406 28.078125 28.902344 C 28.027344 28.746094 27.996094 28.5625 27.972656 28.347656 Z M 27.972656 28.347656 "/>
<path style=" stroke:none;fill-rule:nonzero;fill:rgb(43.137255%,65.490198%,83.137256%);fill-opacity:1;" d="M 4.164062 24.078125 C 4.175781 24.171875 4.167969 24.246094 4.160156 24.320312 C 4.128906 24.324219 4.09375 24.328125 4.0625 24.328125 C 4.050781 24.1875 4.039062 24.042969 4.03125 23.863281 C 4.070312 23.90625 4.109375 23.980469 4.164062 24.078125 Z M 4.164062 24.078125 "/>
<path style=" stroke:none;fill-rule:nonzero;fill:rgb(65.490198%,80.000001%,94.509804%);fill-opacity:1;" d="M 17.691406 15.054688 C 17.714844 15.222656 17.738281 15.425781 17.757812 15.664062 C 17.730469 15.496094 17.707031 15.292969 17.691406 15.054688 Z M 17.691406 15.054688 "/>
<path style=" stroke:none;fill-rule:nonzero;fill:rgb(52.941179%,71.764708%,88.235295%);fill-opacity:1;" d="M 27.863281 31.0625 C 27.832031 31.113281 27.792969 31.132812 27.730469 31.152344 C 27.695312 31.074219 27.679688 30.996094 27.667969 30.917969 C 27.730469 30.957031 27.789062 30.996094 27.863281 31.0625 Z M 27.863281 31.0625 "/>
<path style=" stroke:none;fill-rule:nonzero;fill:rgb(65.490198%,80.000001%,94.509804%);fill-opacity:1;" d="M 24.660156 14.519531 C 24.730469 14.480469 24.8125 14.460938 24.914062 14.429688 C 24.914062 14.511719 24.886719 14.601562 24.855469 14.707031 C 24.789062 14.644531 24.730469 14.59375 24.660156 14.519531 Z M 24.660156 14.519531 "/>
<path style=" stroke:none;fill-rule:nonzero;fill:rgb(65.490198%,80.000001%,94.509804%);fill-opacity:1;" d="M 23.660156 14.199219 C 23.667969 14.351562 23.65625 14.53125 23.625 14.734375 C 23.617188 14.582031 23.628906 14.402344 23.660156 14.199219 Z M 23.660156 14.199219 "/>
<path style=" stroke:none;fill-rule:nonzero;fill:rgb(65.490198%,80.000001%,94.509804%);fill-opacity:1;" d="M 16.375 14.726562 C 16.339844 14.585938 16.316406 14.414062 16.292969 14.203125 C 16.324219 14.34375 16.351562 14.519531 16.375 14.726562 Z M 16.375 14.726562 "/>
<path style=" stroke:none;fill-rule:nonzero;fill:rgb(65.490198%,80.000001%,94.509804%);fill-opacity:1;" d="M 15.027344 14.441406 C 15.109375 14.445312 15.191406 14.46875 15.296875 14.496094 C 15.257812 14.566406 15.191406 14.636719 15.125 14.707031 C 15.089844 14.625 15.058594 14.546875 15.027344 14.441406 Z M 15.027344 14.441406 "/>
<path style=" stroke:none;fill-rule:nonzero;fill:rgb(61.56863%,77.64706%,92.54902%);fill-opacity:1;" d="M 11.589844 28.972656 C 11.546875 28.902344 11.523438 28.816406 11.496094 28.707031 C 11.53125 28.769531 11.566406 28.863281 11.589844 28.972656 Z M 11.589844 28.972656 "/>
<path style=" stroke:none;fill-rule:nonzero;fill:rgb(43.137255%,65.490198%,83.137256%);fill-opacity:1;" d="M 27.886719 27.75 C 27.921875 27.863281 27.949219 28.011719 27.972656 28.195312 C 27.941406 28.082031 27.910156 27.929688 27.886719 27.75 Z M 27.886719 27.75 "/>
<path style=" stroke:none;fill-rule:nonzero;fill:rgb(43.137255%,65.490198%,83.137256%);fill-opacity:1;" d="M 4.371094 24.085938 C 4.320312 24.113281 4.28125 24.109375 4.210938 24.101562 C 4.226562 24.003906 4.269531 23.910156 4.355469 23.722656 C 4.367188 23.902344 4.375 23.980469 4.371094 24.085938 Z M 4.371094 24.085938 "/>
<path style=" stroke:none;fill-rule:nonzero;fill:rgb(56.862748%,74.509805%,90.588236%);fill-opacity:1;" d="M 28.660156 26.039062 C 28.683594 26.132812 28.695312 26.261719 28.6875 26.40625 C 28.660156 26.308594 28.65625 26.191406 28.660156 26.039062 Z M 28.660156 26.039062 "/>
<path style=" stroke:none;fill-rule:nonzero;fill:rgb(65.490198%,80.000001%,94.509804%);fill-opacity:1;" d="M 22.753906 14.480469 C 22.660156 14.503906 22.554688 14.503906 22.421875 14.503906 C 22.507812 14.484375 22.628906 14.46875 22.753906 14.480469 Z M 22.753906 14.480469 "/>
<path style=" stroke:none;fill-rule:nonzero;fill:rgb(65.490198%,80.000001%,94.509804%);fill-opacity:1;" d="M 16.527344 15.574219 C 16.523438 15.601562 16.492188 15.640625 16.460938 15.675781 C 16.429688 15.621094 16.402344 15.566406 16.375 15.484375 C 16.417969 15.5 16.457031 15.542969 16.527344 15.574219 Z M 16.527344 15.574219 "/>
<path style=" stroke:none;fill-rule:nonzero;fill:rgb(65.490198%,80.000001%,94.509804%);fill-opacity:1;" d="M 23.574219 15.484375 C 23.535156 15.511719 23.480469 15.5625 23.421875 15.589844 C 23.464844 15.546875 23.511719 15.527344 23.574219 15.484375 Z M 23.574219 15.484375 "/>
<path style=" stroke:none;fill-rule:nonzero;fill:rgb(25.098041%,52.941179%,72.549021%);fill-opacity:1;" d="M 4.207031 22.1875 C 4.199219 22.085938 4.210938 21.960938 4.25 21.8125 C 4.257812 21.917969 4.246094 22.042969 4.207031 22.1875 Z M 4.207031 22.1875 "/>
<path style=" stroke:none;fill-rule:nonzero;fill:rgb(65.490198%,80.000001%,94.509804%);fill-opacity:1;" d="M 17.558594 14.484375 C 17.476562 14.5 17.371094 14.503906 17.238281 14.503906 C 17.316406 14.492188 17.425781 14.480469 17.558594 14.484375 Z M 17.558594 14.484375 "/>
<path style=" stroke:none;fill-rule:nonzero;fill:rgb(46.666667%,67.843139%,85.09804%);fill-opacity:1;" d="M 34.925781 16.082031 C 34.957031 16.167969 34.980469 16.285156 35.003906 16.433594 C 34.976562 16.347656 34.949219 16.230469 34.925781 16.082031 Z M 34.925781 16.082031 "/>
<path style=" stroke:none;fill-rule:nonzero;fill:rgb(65.490198%,80.000001%,94.509804%);fill-opacity:1;" d="M 24.667969 13.71875 C 24.578125 13.734375 24.46875 13.734375 24.320312 13.734375 C 24.40625 13.722656 24.527344 13.714844 24.667969 13.71875 Z M 24.667969 13.71875 "/>
<path style=" stroke:none;fill-rule:nonzero;fill:rgb(43.137255%,65.490198%,83.137256%);fill-opacity:1;" d="M 28.027344 29.117188 C 28.023438 29.347656 27.921875 29.28125 27.800781 29.117188 C 27.863281 29.105469 27.929688 29.121094 28.027344 29.117188 Z M 28.027344 29.117188 "/>
<path style=" stroke:none;fill-rule:nonzero;fill:rgb(49.803922%,70.19608%,86.666667%);fill-opacity:1;" d="M 32.328125 11.648438 C 32.335938 11.695312 32.320312 11.71875 32.28125 11.746094 C 32.207031 11.714844 32.152344 11.671875 32.023438 11.574219 C 32.183594 11.601562 32.25 11.613281 32.328125 11.648438 Z M 32.328125 11.648438 "/>
<path style=" stroke:none;fill-rule:nonzero;fill:rgb(65.490198%,80.000001%,94.509804%);fill-opacity:1;" d="M 15.660156 13.714844 C 15.570312 13.734375 15.457031 13.734375 15.3125 13.734375 C 15.398438 13.71875 15.519531 13.707031 15.660156 13.714844 Z M 15.660156 13.714844 "/>
<path style=" stroke:none;fill-rule:nonzero;fill:rgb(65.490198%,80.000001%,94.509804%);fill-opacity:1;" d="M 16.410156 16.148438 C 16.457031 16.128906 16.515625 16.132812 16.605469 16.132812 C 16.5625 16.140625 16.492188 16.15625 16.410156 16.148438 Z M 16.410156 16.148438 "/>
<path style=" stroke:none;fill-rule:nonzero;fill:rgb(65.490198%,80.000001%,94.509804%);fill-opacity:1;" d="M 24.390625 14.289062 C 24.382812 14.25 24.402344 14.21875 24.425781 14.1875 C 24.460938 14.21875 24.496094 14.25 24.53125 14.308594 C 24.492188 14.320312 24.453125 14.308594 24.390625 14.289062 Z M 24.390625 14.289062 "/>
<path style=" stroke:none;fill-rule:nonzero;fill:rgb(65.490198%,80.000001%,94.509804%);fill-opacity:1;" d="M 15.46875 14.324219 C 15.492188 14.300781 15.546875 14.269531 15.605469 14.257812 C 15.570312 14.292969 15.535156 14.300781 15.46875 14.324219 Z M 15.46875 14.324219 "/>
<path style=" stroke:none;fill-rule:nonzero;fill:rgb(65.490198%,80.000001%,94.509804%);fill-opacity:1;" d="M 24.976562 14.292969 C 24.960938 14.226562 24.957031 14.140625 24.960938 14.023438 C 24.972656 14.085938 24.984375 14.179688 24.976562 14.292969 Z M 24.976562 14.292969 "/>
<path style=" stroke:none;fill-rule:nonzero;fill:rgb(65.490198%,80.000001%,94.509804%);fill-opacity:1;" d="M 14.988281 14.007812 C 15.007812 14.078125 15.011719 14.164062 15.011719 14.28125 C 14.996094 14.21875 14.984375 14.121094 14.988281 14.007812 Z M 14.988281 14.007812 "/>
<path style=" stroke:none;fill-rule:nonzero;fill:rgb(65.490198%,80.000001%,94.509804%);fill-opacity:1;" d="M 22.230469 15.328125 C 22.222656 15.253906 22.230469 15.160156 22.257812 15.042969 C 22.265625 15.117188 22.253906 15.210938 22.230469 15.328125 Z M 22.230469 15.328125 "/>
<path style=" stroke:none;fill-rule:nonzero;fill:rgb(49.803922%,70.19608%,86.666667%);fill-opacity:1;" d="M 7.796875 11.652344 C 7.757812 11.65625 7.738281 11.644531 7.738281 11.582031 C 7.742188 11.527344 7.726562 11.511719 7.714844 11.496094 C 7.710938 11.5 7.710938 11.503906 7.710938 11.503906 C 7.746094 11.550781 7.777344 11.597656 7.796875 11.652344 Z M 7.796875 11.652344 "/>
<path style=" stroke:none;fill-rule:nonzero;fill:rgb(65.490198%,80.000001%,94.509804%);fill-opacity:1;" d="M 22.335938 14.925781 C 22.378906 14.914062 22.449219 14.890625 22.535156 14.886719 C 22.492188 14.90625 22.429688 14.910156 22.335938 14.925781 Z M 22.335938 14.925781 "/>
<path style=" stroke:none;fill-rule:nonzero;fill:rgb(65.490198%,80.000001%,94.509804%);fill-opacity:1;" d="M 23.339844 16.160156 C 23.394531 16.128906 23.453125 16.128906 23.542969 16.128906 C 23.496094 16.148438 23.417969 16.167969 23.339844 16.160156 Z M 23.339844 16.160156 "/>
<path style=" stroke:none;fill-rule:nonzero;fill:rgb(25.098041%,52.941179%,72.549021%);fill-opacity:1;" d="M 4.203125 20.820312 C 4.199219 20.765625 4.214844 20.695312 4.25 20.605469 C 4.253906 20.660156 4.242188 20.730469 4.203125 20.820312 Z M 4.203125 20.820312 "/>
<path style=" stroke:none;fill-rule:nonzero;fill:rgb(65.490198%,80.000001%,94.509804%);fill-opacity:1;" d="M 17.449219 14.902344 C 17.492188 14.898438 17.566406 14.894531 17.652344 14.910156 C 17.601562 14.921875 17.542969 14.910156 17.449219 14.902344 Z M 17.449219 14.902344 "/>
<path style=" stroke:none;fill-rule:nonzero;fill:rgb(65.490198%,80.000001%,94.509804%);fill-opacity:1;" d="M 18.078125 14.734375 C 18.03125 14.71875 17.988281 14.675781 17.933594 14.617188 C 17.976562 14.632812 18.027344 14.667969 18.078125 14.734375 Z M 18.078125 14.734375 "/>
<path style=" stroke:none;fill-rule:nonzero;fill:rgb(46.666667%,67.843139%,85.09804%);fill-opacity:1;" d="M 34.855469 15.816406 C 34.878906 15.835938 34.898438 15.871094 34.914062 15.933594 C 34.894531 15.917969 34.875 15.878906 34.855469 15.816406 Z M 34.855469 15.816406 "/>
<path style=" stroke:none;fill-rule:nonzero;fill:rgb(60.392159%,76.862746%,92.156863%);fill-opacity:1;" d="M 29.898438 29.136719 C 29.875 29.132812 29.863281 29.109375 29.855469 29.066406 C 29.867188 29.074219 29.886719 29.101562 29.898438 29.136719 Z M 29.898438 29.136719 "/>
<path style=" stroke:none;fill-rule:nonzero;fill:rgb(25.098041%,52.941179%,72.549021%);fill-opacity:1;" d="M 4.132812 21.019531 C 4.121094 20.984375 4.128906 20.933594 4.160156 20.863281 C 4.171875 20.898438 4.164062 20.953125 4.132812 21.019531 Z M 4.132812 21.019531 "/>
<path style=" stroke:none;fill-rule:nonzero;fill:rgb(65.490198%,80.000001%,94.509804%);fill-opacity:1;" d="M 16.082031 13.890625 C 16.054688 13.894531 16.015625 13.882812 15.964844 13.855469 C 15.992188 13.847656 16.03125 13.859375 16.082031 13.890625 Z M 16.082031 13.890625 "/>
<path style=" stroke:none;fill-rule:nonzero;fill:rgb(65.490198%,80.000001%,94.509804%);fill-opacity:1;" d="M 24.03125 15.507812 C 24.027344 15.484375 24.03125 15.4375 24.054688 15.378906 C 24.0625 15.40625 24.054688 15.449219 24.03125 15.507812 Z M 24.03125 15.507812 "/>
<path style=" stroke:none;fill-rule:nonzero;fill:rgb(65.490198%,80.000001%,94.509804%);fill-opacity:1;" d="M 15.894531 15.386719 C 15.917969 15.402344 15.9375 15.441406 15.953125 15.503906 C 15.929688 15.488281 15.910156 15.449219 15.894531 15.386719 Z M 15.894531 15.386719 "/>
<path style=" stroke:none;fill-rule:nonzero;fill:rgb(65.490198%,80.000001%,94.509804%);fill-opacity:1;" d="M 23.996094 13.835938 C 23.984375 13.859375 23.949219 13.882812 23.898438 13.90625 C 23.910156 13.882812 23.941406 13.855469 23.996094 13.835938 Z M 23.996094 13.835938 "/>
<path style=" stroke:none;fill-rule:nonzero;fill:rgb(65.490198%,80.000001%,94.509804%);fill-opacity:1;" d="M 24.121094 15.085938 C 24.113281 15.058594 24.121094 15.011719 24.148438 14.949219 C 24.15625 14.980469 24.148438 15.023438 24.121094 15.085938 Z M 24.121094 15.085938 "/>
<path style=" stroke:none;fill-rule:nonzero;fill:rgb(65.490198%,80.000001%,94.509804%);fill-opacity:1;" d="M 15.800781 14.957031 C 15.824219 14.972656 15.847656 15.015625 15.867188 15.078125 C 15.84375 15.0625 15.820312 15.019531 15.800781 14.957031 Z M 15.800781 14.957031 "/>
<path style=" stroke:none;fill-rule:nonzero;fill:rgb(49.803922%,70.19608%,86.666667%);fill-opacity:1;" d="M 6.1875 14.285156 C 6.179688 14.257812 6.191406 14.222656 6.222656 14.175781 C 6.230469 14.203125 6.21875 14.238281 6.1875 14.285156 Z M 6.1875 14.285156 "/>
<path style=" stroke:none;fill-rule:nonzero;fill:rgb(49.803922%,70.19608%,86.666667%);fill-opacity:1;" d="M 8.589844 10.363281 C 8.578125 10.347656 8.589844 10.332031 8.617188 10.308594 C 8.632812 10.328125 8.625 10.34375 8.589844 10.363281 Z M 8.589844 10.363281 "/>
<path style=" stroke:none;fill-rule:nonzero;fill:rgb(49.803922%,70.19608%,86.666667%);fill-opacity:1;" d="M 8.941406 9.980469 C 8.933594 9.976562 8.945312 9.964844 8.949219 9.964844 C 8.949219 9.960938 8.945312 9.988281 8.941406 9.980469 Z M 8.941406 9.980469 "/>
<path style=" stroke:none;fill-rule:nonzero;fill:rgb(49.803922%,70.19608%,86.666667%);fill-opacity:1;" d="M 8.671875 10.257812 C 8.664062 10.257812 8.675781 10.234375 8.679688 10.234375 C 8.683594 10.230469 8.683594 10.261719 8.671875 10.257812 Z M 8.671875 10.257812 "/>
<path style=" stroke:none;fill-rule:nonzero;fill:rgb(56.078434%,74.117649%,90.196079%);fill-opacity:1;" d="M 29.570312 28.128906 C 29.550781 28.140625 29.535156 28.128906 29.519531 28.09375 C 29.539062 28.078125 29.558594 28.085938 29.570312 28.128906 Z M 29.570312 28.128906 "/>
<path style=" stroke:none;fill-rule:nonzero;fill:rgb(49.803922%,70.19608%,86.666667%);fill-opacity:1;" d="M 9.023438 9.914062 C 9.007812 9.914062 9.035156 9.882812 9.042969 9.878906 C 9.058594 9.890625 9.050781 9.90625 9.023438 9.914062 Z M 9.023438 9.914062 "/>
<path style=" stroke:none;fill-rule:nonzero;fill:rgb(56.078434%,74.117649%,90.196079%);fill-opacity:1;" d="M 10.136719 28.859375 C 10.175781 28.855469 10.179688 28.875 10.152344 28.910156 C 10.140625 28.917969 10.128906 28.875 10.136719 28.859375 Z M 10.136719 28.859375 "/>
<path style=" stroke:none;fill-rule:nonzero;fill:rgb(49.803922%,70.19608%,86.666667%);fill-opacity:1;" d="M 9.105469 9.839844 C 9.097656 9.824219 9.109375 9.808594 9.136719 9.792969 C 9.152344 9.808594 9.140625 9.828125 9.105469 9.839844 Z M 9.105469 9.839844 "/>
<path style=" stroke:none;fill-rule:nonzero;fill:rgb(49.803922%,70.19608%,86.666667%);fill-opacity:1;" d="M 9.191406 9.757812 C 9.179688 9.742188 9.1875 9.726562 9.214844 9.710938 C 9.230469 9.726562 9.226562 9.742188 9.191406 9.757812 Z M 9.191406 9.757812 "/>
<path style=" stroke:none;fill-rule:nonzero;fill:rgb(49.803922%,70.19608%,86.666667%);fill-opacity:1;" d="M 9.359375 9.5 C 9.351562 9.488281 9.355469 9.476562 9.375 9.457031 C 9.394531 9.472656 9.390625 9.488281 9.359375 9.5 Z M 9.359375 9.5 "/>
<path style=" stroke:none;fill-rule:nonzero;fill:rgb(49.803922%,70.19608%,86.666667%);fill-opacity:1;" d="M 5.421875 15.1875 C 5.40625 15.164062 5.417969 15.140625 5.460938 15.113281 C 5.480469 15.136719 5.46875 15.160156 5.421875 15.1875 Z M 5.421875 15.1875 "/>
<path style=" stroke:none;fill-rule:nonzero;fill:rgb(65.490198%,80.000001%,94.509804%);fill-opacity:1;" d="M 15.160156 13.761719 C 15.171875 13.78125 15.164062 13.796875 15.132812 13.808594 C 15.117188 13.789062 15.125 13.773438 15.160156 13.761719 Z M 15.160156 13.761719 "/>
<path style=" stroke:none;fill-rule:nonzero;fill:rgb(49.803922%,70.19608%,86.666667%);fill-opacity:1;" d="M 6.101562 14.382812 C 6.09375 14.371094 6.101562 14.359375 6.121094 14.34375 C 6.136719 14.359375 6.128906 14.375 6.101562 14.382812 Z M 6.101562 14.382812 "/>
<path style=" stroke:none;fill-rule:nonzero;fill:rgb(46.666667%,67.843139%,85.09804%);fill-opacity:1;" d="M 34.4375 14.007812 C 34.4375 13.996094 34.472656 14.019531 34.476562 14.027344 C 34.480469 14.039062 34.453125 14.039062 34.453125 14.039062 C 34.453125 14.039062 34.4375 14.019531 34.4375 14.007812 Z M 34.4375 14.007812 "/>
<path style=" stroke:none;fill-rule:nonzero;fill:rgb(46.666667%,67.843139%,85.09804%);fill-opacity:1;" d="M 34.351562 13.921875 C 34.351562 13.90625 34.386719 13.929688 34.390625 13.941406 C 34.394531 13.949219 34.367188 13.949219 34.367188 13.949219 C 34.367188 13.949219 34.351562 13.933594 34.351562 13.921875 Z M 34.351562 13.921875 "/>
<path style=" stroke:none;fill-rule:nonzero;fill:rgb(65.490198%,80.000001%,94.509804%);fill-opacity:1;" d="M 23.824219 13.917969 C 23.839844 13.945312 23.828125 13.960938 23.789062 13.980469 C 23.765625 13.953125 23.777344 13.933594 23.824219 13.917969 Z M 23.824219 13.917969 "/>
<path style=" stroke:none;fill-rule:nonzero;fill:rgb(65.490198%,80.000001%,94.509804%);fill-opacity:1;" d="M 16.195312 13.964844 C 16.175781 13.980469 16.152344 13.972656 16.132812 13.9375 C 16.15625 13.910156 16.175781 13.917969 16.195312 13.964844 Z M 16.195312 13.964844 "/>
<path style=" stroke:none;fill-rule:nonzero;fill:rgb(46.666667%,67.843139%,85.09804%);fill-opacity:1;" d="M 34.238281 13.835938 C 34.253906 13.820312 34.273438 13.832031 34.300781 13.859375 C 34.285156 13.882812 34.261719 13.871094 34.238281 13.835938 Z M 34.238281 13.835938 "/>
<path style=" stroke:none;fill-rule:nonzero;fill:rgb(65.490198%,80.000001%,94.509804%);fill-opacity:1;" d="M 24.921875 13.882812 C 24.90625 13.894531 24.894531 13.886719 24.882812 13.859375 C 24.898438 13.84375 24.914062 13.851562 24.921875 13.882812 Z M 24.921875 13.882812 "/>
<path style=" stroke:none;fill-rule:nonzero;fill:rgb(65.490198%,80.000001%,94.509804%);fill-opacity:1;" d="M 15.078125 13.851562 C 15.089844 13.867188 15.082031 13.878906 15.058594 13.894531 C 15.042969 13.875 15.046875 13.863281 15.078125 13.851562 Z M 15.078125 13.851562 "/>
<path style=" stroke:none;fill-rule:nonzero;fill:rgb(65.490198%,80.000001%,94.509804%);fill-opacity:1;" d="M 24.847656 13.796875 C 24.828125 13.8125 24.8125 13.804688 24.796875 13.773438 C 24.816406 13.753906 24.835938 13.761719 24.847656 13.796875 Z M 24.847656 13.796875 "/>
<path style=" stroke:none;fill-rule:nonzero;fill:rgb(49.803922%,70.19608%,86.666667%);fill-opacity:1;" d="M 6.015625 14.480469 C 6.003906 14.464844 6.015625 14.449219 6.042969 14.429688 C 6.0625 14.445312 6.050781 14.464844 6.015625 14.480469 Z M 6.015625 14.480469 "/>
<path style=" stroke:none;fill-rule:nonzero;fill:rgb(49.803922%,70.19608%,86.666667%);fill-opacity:1;" d="M 6.355469 13.351562 C 6.347656 13.351562 6.359375 13.328125 6.363281 13.324219 C 6.371094 13.320312 6.367188 13.351562 6.355469 13.351562 Z M 6.355469 13.351562 "/>
<path style=" stroke:none;fill-rule:nonzero;fill:rgb(49.803922%,70.19608%,86.666667%);fill-opacity:1;" d="M 6.53125 13.109375 C 6.519531 13.09375 6.527344 13.078125 6.554688 13.058594 C 6.570312 13.074219 6.566406 13.09375 6.53125 13.109375 Z M 6.53125 13.109375 "/>
<path style=" stroke:none;fill-rule:nonzero;fill:rgb(49.803922%,70.19608%,86.666667%);fill-opacity:1;" d="M 33.058594 12.632812 C 33.074219 12.625 33.089844 12.636719 33.105469 12.664062 C 33.089844 12.679688 33.074219 12.667969 33.058594 12.632812 Z M 33.058594 12.632812 "/>
<path style=" stroke:none;fill-rule:nonzero;fill:rgb(49.803922%,70.19608%,86.666667%);fill-opacity:1;" d="M 6.871094 12.675781 C 6.863281 12.660156 6.875 12.644531 6.902344 12.625 C 6.917969 12.640625 6.90625 12.660156 6.871094 12.675781 Z M 6.871094 12.675781 "/>
<path style=" stroke:none;fill-rule:nonzero;fill:rgb(49.803922%,70.19608%,86.666667%);fill-opacity:1;" d="M 6.957031 12.578125 C 6.945312 12.578125 6.964844 12.550781 6.972656 12.546875 C 6.988281 12.558594 6.980469 12.570312 6.957031 12.578125 Z M 6.957031 12.578125 "/>
<path style=" stroke:none;fill-rule:nonzero;fill:rgb(49.803922%,70.19608%,86.666667%);fill-opacity:1;" d="M 7.632812 11.484375 C 7.636719 11.46875 7.640625 11.453125 7.660156 11.433594 C 7.675781 11.441406 7.679688 11.453125 7.699219 11.484375 C 7.710938 11.503906 7.710938 11.5 7.695312 11.492188 C 7.675781 11.488281 7.632812 11.484375 7.632812 11.484375 Z M 7.632812 11.484375 "/>
<path style=" stroke:none;fill-rule:nonzero;fill:rgb(49.803922%,70.19608%,86.666667%);fill-opacity:1;" d="M 8.078125 11.035156 C 8.070312 11.019531 8.082031 11.007812 8.109375 10.992188 C 8.121094 11.007812 8.113281 11.027344 8.078125 11.035156 Z M 8.078125 11.035156 "/>
<path style=" stroke:none;fill-rule:nonzero;fill:rgb(49.803922%,70.19608%,86.666667%);fill-opacity:1;" d="M 5.503906 15.09375 C 5.488281 15.074219 5.503906 15.054688 5.539062 15.027344 C 5.558594 15.050781 5.546875 15.070312 5.503906 15.09375 Z M 5.503906 15.09375 "/>
<path style=" stroke:none;fill-rule:nonzero;fill:rgb(46.666667%,67.843139%,85.09804%);fill-opacity:1;" d="M 35.375 17.007812 C 35.390625 17 35.40625 17.011719 35.425781 17.042969 C 35.40625 17.058594 35.386719 17.046875 35.375 17.007812 Z M 35.375 17.007812 "/>
<path style=" stroke:none;fill-rule:nonzero;fill:rgb(46.666667%,67.843139%,85.09804%);fill-opacity:1;" d="M 35.320312 16.933594 C 35.324219 16.925781 35.339844 16.941406 35.34375 16.949219 C 35.34375 16.953125 35.316406 16.941406 35.320312 16.933594 Z M 35.320312 16.933594 "/>
<path style=" stroke:none;fill-rule:nonzero;fill:rgb(46.666667%,67.843139%,85.09804%);fill-opacity:1;" d="M 35.191406 16.753906 C 35.214844 16.746094 35.234375 16.761719 35.25 16.804688 C 35.226562 16.816406 35.207031 16.800781 35.191406 16.753906 Z M 35.191406 16.753906 "/>
<path style=" stroke:none;fill-rule:nonzero;fill:rgb(46.666667%,67.843139%,85.09804%);fill-opacity:1;" d="M 35.125 16.671875 C 35.140625 16.660156 35.15625 16.671875 35.167969 16.699219 C 35.148438 16.714844 35.132812 16.707031 35.125 16.671875 Z M 35.125 16.671875 "/>
<path style=" stroke:none;fill-rule:nonzero;fill:rgb(46.666667%,67.843139%,85.09804%);fill-opacity:1;" d="M 4.5625 16.21875 C 4.546875 16.199219 4.558594 16.175781 4.59375 16.144531 C 4.613281 16.164062 4.605469 16.191406 4.5625 16.21875 Z M 4.5625 16.21875 "/>
<path style=" stroke:none;fill-rule:nonzero;fill:rgb(46.666667%,67.843139%,85.09804%);fill-opacity:1;" d="M 4.640625 16.113281 C 4.628906 16.097656 4.640625 16.082031 4.664062 16.0625 C 4.683594 16.078125 4.675781 16.09375 4.640625 16.113281 Z M 4.640625 16.113281 "/>
<path style=" stroke:none;fill-rule:nonzero;fill:rgb(46.666667%,67.843139%,85.09804%);fill-opacity:1;" d="M 34.78125 15.644531 C 34.804688 15.636719 34.816406 15.652344 34.824219 15.6875 C 34.804688 15.699219 34.789062 15.683594 34.78125 15.644531 Z M 34.78125 15.644531 "/>
<path style=" stroke:none;fill-rule:nonzero;fill:rgb(46.666667%,67.843139%,85.09804%);fill-opacity:1;" d="M 34.707031 15.472656 C 34.722656 15.46875 34.730469 15.480469 34.742188 15.503906 C 34.722656 15.515625 34.710938 15.507812 34.707031 15.472656 Z M 34.707031 15.472656 "/>
<path style=" stroke:none;fill-rule:nonzero;fill:rgb(46.666667%,67.843139%,85.09804%);fill-opacity:1;" d="M 35.449219 17.097656 C 35.472656 17.085938 35.488281 17.101562 35.507812 17.140625 C 35.488281 17.15625 35.464844 17.140625 35.449219 17.097656 Z M 35.449219 17.097656 "/>
<path style=" stroke:none;fill-rule:nonzero;fill:rgb(65.490198%,80.000001%,94.509804%);fill-opacity:1;" d="M 22.585938 14.949219 C 22.609375 14.9375 22.625 14.953125 22.640625 14.988281 C 22.621094 15.003906 22.601562 14.988281 22.585938 14.949219 Z M 22.585938 14.949219 "/>
<path style=" stroke:none;fill-rule:nonzero;fill:rgb(65.490198%,80.000001%,94.509804%);fill-opacity:1;" d="M 17.339844 15 C 17.328125 14.984375 17.335938 14.964844 17.371094 14.941406 C 17.386719 14.960938 17.378906 14.980469 17.339844 15 Z M 17.339844 15 "/>
<path style=" stroke:none;fill-rule:nonzero;fill:rgb(49.803922%,70.19608%,86.666667%);fill-opacity:1;" d="M 5.582031 14.992188 C 5.574219 14.976562 5.582031 14.964844 5.601562 14.949219 C 5.621094 14.960938 5.613281 14.976562 5.582031 14.992188 Z M 5.582031 14.992188 "/>
<path style=" stroke:none;fill-rule:nonzero;fill:rgb(65.490198%,80.000001%,94.509804%);fill-opacity:1;" d="M 24.210938 14.671875 C 24.191406 14.65625 24.195312 14.636719 24.222656 14.609375 C 24.242188 14.621094 24.238281 14.640625 24.210938 14.671875 Z M 24.210938 14.671875 "/>
<path style=" stroke:none;fill-rule:nonzero;fill:rgb(65.490198%,80.000001%,94.509804%);fill-opacity:1;" d="M 15.734375 14.613281 C 15.757812 14.609375 15.769531 14.625 15.773438 14.664062 C 15.75 14.671875 15.738281 14.65625 15.734375 14.613281 Z M 15.734375 14.613281 "/>
<path style=" stroke:none;fill-rule:nonzero;fill:rgb(65.490198%,80.000001%,94.509804%);fill-opacity:1;" d="M 22.183594 14.554688 C 22.1875 14.574219 22.175781 14.585938 22.140625 14.585938 C 22.132812 14.5625 22.148438 14.550781 22.183594 14.554688 Z M 22.183594 14.554688 "/>
<path style=" stroke:none;fill-rule:nonzero;fill:rgb(65.490198%,80.000001%,94.509804%);fill-opacity:1;" d="M 17.835938 14.570312 C 17.84375 14.582031 17.816406 14.585938 17.816406 14.585938 C 17.816406 14.585938 17.789062 14.578125 17.78125 14.570312 C 17.789062 14.546875 17.808594 14.546875 17.835938 14.570312 Z M 17.835938 14.570312 "/>
<path style=" stroke:none;fill-rule:nonzero;fill:rgb(49.803922%,70.19608%,86.666667%);fill-opacity:1;" d="M 5.933594 14.574219 C 5.917969 14.554688 5.933594 14.535156 5.96875 14.511719 C 5.988281 14.535156 5.976562 14.554688 5.933594 14.574219 Z M 5.933594 14.574219 "/>
<path style=" stroke:none;fill-rule:nonzero;fill:rgb(0%,0.392157%,0.784314%);fill-opacity:1;" d="M 35.992188 18.804688 C 36.011719 18.804688 36.023438 18.8125 36.03125 18.820312 C 36.011719 18.820312 35.996094 18.820312 35.992188 18.804688 Z M 35.992188 18.804688 "/>
<path style=" stroke:none;fill-rule:nonzero;fill:rgb(0%,0.392157%,0.784314%);fill-opacity:1;" d="M 7.644531 11.507812 C 7.632812 11.484375 7.675781 11.488281 7.695312 11.492188 C 7.726562 11.511719 7.742188 11.527344 7.734375 11.566406 C 7.691406 11.570312 7.671875 11.550781 7.644531 11.507812 Z M 7.644531 11.507812 "/>
</g>
</svg>
